<svg xmlns="http://www.w3.org/2000/svg" viewBox="0 0 62.87 92.96"><defs><style>.cls-1{fill:#736357;}</style></defs><g id="Layer_2" data-name="Layer 2"><g id="back_legs" data-name="back legs"><path class="cls-1" d="M21.53,57.81c1.84-6.39,8.69-18.73,11.6-29.48,1.56-5.73,1.72-8.49.53-14.53C31.83,10.58,36.09,6.29,40,7.46c-.08-3,8.56-8,9.74-2C53.48,3,58,4.42,55.88,10.9c3-2.23,9,2.95,4.18,8.41C53.41,28.44,50.18,41,45.31,47.4"/><path d="M21.53,57.81a47.71,47.71,0,0,1,1.65-5.59c.63-1.84,1.3-3.66,2-5.48,1.26-3.67,2.95-7.13,4.32-10.72A73.75,73.75,0,0,0,32.9,25.1a22.42,22.42,0,0,0,.53-5.52A37.29,37.29,0,0,0,32.68,14l.11.3a4.43,4.43,0,0,1-.37-3.46A6.18,6.18,0,0,1,34.2,8.07,6.93,6.93,0,0,1,37,6.49a6,6,0,0,1,3.29,0L39,7.48a3.73,3.73,0,0,1,.74-2.14,7.4,7.4,0,0,1,1.3-1.42,10,10,0,0,1,3.22-1.86,5.61,5.61,0,0,1,4-.09A3.78,3.78,0,0,1,50,3.39a5.5,5.5,0,0,1,.76,1.91l-1.55-.63a7.68,7.68,0,0,1,3.23-1.3,4.4,4.4,0,0,1,3.67,1,4.76,4.76,0,0,1,1.32,3.51,10.78,10.78,0,0,1-.58,3.3l-1.54-1.12a3.82,3.82,0,0,1,2.14-.72,4.85,4.85,0,0,1,2.09.46,5.82,5.82,0,0,1,3.15,6.81A8.22,8.22,0,0,1,60.8,20l.07-.08a54.29,54.29,0,0,0-4.06,6.66c-1.23,2.31-2.29,4.72-3.4,7.12s-2.42,4.72-3.7,7.06a38.67,38.67,0,0,1-4.4,6.67,46.21,46.21,0,0,0,3.46-7.11c1-2.45,1.89-4.94,2.83-7.43S53.81,28,55,25.62a56.3,56.3,0,0,1,4.21-6.9l0-.07h0a6.36,6.36,0,0,0,1.43-2.51,3.81,3.81,0,0,0-.22-2.62,3.85,3.85,0,0,0-1.84-1.87,2.19,2.19,0,0,0-2.21.06,1,1,0,0,1-1.55-1.09v0a8.92,8.92,0,0,0,.48-2.68,2.78,2.78,0,0,0-.7-2.06,2.41,2.41,0,0,0-2-.5,5.71,5.71,0,0,0-2.37,1,1,1,0,0,1-1.39-.26,1.14,1.14,0,0,1-.15-.36h0A2.36,2.36,0,0,0,47.5,3.81,3.73,3.73,0,0,0,44.93,4a8,8,0,0,0-2.56,1.48,5.81,5.81,0,0,0-1,1,1.92,1.92,0,0,0-.39,1v.05a1,1,0,0,1-1,1,.92.92,0,0,1-.28-.05,4.49,4.49,0,0,0-4.18,1.13,4.17,4.17,0,0,0-1.21,1.85,2.43,2.43,0,0,0,.19,1.91,1.25,1.25,0,0,1,.12.3,40.62,40.62,0,0,1,.78,5.91,24.06,24.06,0,0,1-.58,6,75.37,75.37,0,0,1-3.49,11.23A92.24,92.24,0,0,1,26.6,47.38C24.86,50.84,23,54.21,21.53,57.81Z"/><path class="cls-1" d="M55.88,10.9a12.12,12.12,0,0,1-2.5,4.46"/><path d="M56.65,11.2a24.3,24.3,0,0,1-1.44,2.24,9.29,9.29,0,0,1-1.83,1.92,9.52,9.52,0,0,0,1.1-2.3,25.32,25.32,0,0,0,.63-2.46.83.83,0,0,1,1-.65.85.85,0,0,1,.65,1A.87.87,0,0,1,56.65,11.2Z"/><path class="cls-1" d="M49.76,5.5c-.43,2.12-1.12,2.9-1.55,5"/><path d="M50.57,5.66a14.08,14.08,0,0,1-1.2,2.5,14.35,14.35,0,0,0-1.16,2.36,14.23,14.23,0,0,1,.39-2.66A14.11,14.11,0,0,0,49,5.33a.84.84,0,0,1,1.68,0,.66.66,0,0,1-.05.25Z"/><path class="cls-1" d="M40,7.46c.52,2.68,1.35,2.58,1.74,4.59"/><path d="M40.83,7.3a7.4,7.4,0,0,0,.35,2.29c.13.37.3.78.41,1.2a5.46,5.46,0,0,1,.17,1.26A5.57,5.57,0,0,0,41.21,11c-.22-.34-.49-.63-.76-1A8.76,8.76,0,0,1,39.2,7.62v0A.84.84,0,0,1,40.78,7,.81.81,0,0,1,40.83,7.3Z"/><path class="cls-1" d="M20.73,57.25C31.26,39.61,46.54,15.71,57.24,32.78S36.66,92.27,0,93"/><path d="M20.73,57.25a180.68,180.68,0,0,1,9.1-16.06,82.11,82.11,0,0,1,5.8-7.27c1.07-1.14,2.15-2.27,3.34-3.31a24.23,24.23,0,0,1,3.85-2.84A13.14,13.14,0,0,1,47.45,26a8.57,8.57,0,0,1,5,.75,11.77,11.77,0,0,1,3.87,3.13A18.49,18.49,0,0,1,59,34a18.78,18.78,0,0,1,1.19,9.52,35.51,35.51,0,0,1-2.39,9.13A51.81,51.81,0,0,1,53.54,61a65.58,65.58,0,0,1-5.46,7.55c-1,1.22-2,2.35-3.07,3.51s-2.15,2.24-3.3,3.28a76.88,76.88,0,0,1-7.14,6,68.58,68.58,0,0,1-16.28,9c-1.47.52-3,.86-4.49,1.28-.76.17-1.53.31-2.29.47s-1.51.31-2.29.4A49.16,49.16,0,0,1,0,93,55.28,55.28,0,0,0,17.58,88.4a66.79,66.79,0,0,0,15.8-8.72,73.08,73.08,0,0,0,6.95-5.82c1.13-1,2.15-2.13,3.22-3.2s2.05-2.23,3-3.41a64.36,64.36,0,0,0,5.3-7.33,50.47,50.47,0,0,0,4.11-8,33,33,0,0,0,2.26-8.6,16.89,16.89,0,0,0-1-8.51,16.77,16.77,0,0,0-2.33-3.6,9.87,9.87,0,0,0-3.21-2.62,6.62,6.62,0,0,0-3.9-.57,11,11,0,0,0-3.91,1.49,30.53,30.53,0,0,0-6.72,5.77,82.82,82.82,0,0,0-5.65,7.09C27.68,47.14,24.23,52.21,20.73,57.25Z"/><path d="M31.21,82.94a9.44,9.44,0,0,1-2.85-4.21,26.84,26.84,0,0,1-.69-4.48A5,5,0,0,0,27,72.44a8.67,8.67,0,0,0-1.36-1.56,9.17,9.17,0,0,1-2.55-3.58,8.74,8.74,0,0,0,3.08,3A11.47,11.47,0,0,1,28,71.7a6.41,6.41,0,0,1,1.24,2.1,27.38,27.38,0,0,0,1.41,4,6.52,6.52,0,0,0,2.55,2.5Z"/><path d="M41.4,73.9a43.1,43.1,0,0,0-4.19-4,30.93,30.93,0,0,0-4.9-3.06C30.57,65.93,28.78,65,27.08,64a18.49,18.49,0,0,1-4.61-3.82,18.5,18.5,0,0,0,5,3.13c1.79.8,3.65,1.46,5.51,2.16a37.25,37.25,0,0,1,5.6,2.48,48.29,48.29,0,0,1,5,3.5Z"/><path d="M51,61.9a55.88,55.88,0,0,0-10.08-3.29,52.89,52.89,0,0,1-10.35-3.46A52.52,52.52,0,0,0,41.22,57a58,58,0,0,1,11,1.83Z"/><path d="M56.05,53.08a32.15,32.15,0,0,0-8.42-2.58,63.4,63.4,0,0,0-9.07-.69,64.76,64.76,0,0,1,9.18-1A34.78,34.78,0,0,1,57.16,50Z"/><path d="M59.37,42.27a14.09,14.09,0,0,1-3.94-.35c-1.24-.28-2.4-.66-3.53-1A18.91,18.91,0,0,0,45,39.52a19.58,19.58,0,0,1,7.2-.26,17.29,17.29,0,0,0,6.6-.26Z"/><path d="M36.54,9.82a3.14,3.14,0,0,1-1.31-1.17c-.26-.38,0-.87-.06-1.32L35.1,5.94c0-.48-.07-1-.09-1.46l.22-.11a11,11,0,0,1,1,1.12,9,9,0,0,1,.82,1.28c.24.45.68.87.6,1.41a2.43,2.43,0,0,1-.9,1.61Z"/><path d="M45.32,5.23A3.16,3.16,0,0,1,44.25,4c-.2-.38.1-.79.14-1.2s.08-.84.11-1.28,0-.89,0-1.37l.23-.1a7.1,7.1,0,0,1,.92,1.13,6.3,6.3,0,0,1,.67,1.32c.18.45.55.93.38,1.44a2.19,2.19,0,0,1-1.18,1.36Z"/><path d="M53.37,7.26a3.35,3.35,0,0,1-.58-2.19c0-.69.54-1.21.86-1.79A15.94,15.94,0,0,1,54.73,1.6,9.18,9.18,0,0,1,56.08.09l.21.15a15.12,15.12,0,0,0-.42,1.86L55.53,4c-.11.62,0,1.31-.35,1.83a4.2,4.2,0,0,1-1.56,1.51Z"/><path d="M58.58,13a2.89,2.89,0,0,1-.35-1.69c0-.46.5-.7.77-1.06l.81-1.08c.31-.36.56-.74.87-1.13l.24.07A10.27,10.27,0,0,1,61,9.6a10.05,10.05,0,0,1-.16,1.45c-.09.48,0,1.06-.38,1.41a2.4,2.4,0,0,1-1.66.69Z"/><path d="M45.56,21.62a86.28,86.28,0,0,0-11.2,2.71l-.5-4.11A86.75,86.75,0,0,1,45.56,21.62Z"/><path d="M46.26,24.59a5.92,5.92,0,0,1,2.48-.26c.84.07,1.63.16,2.44.24l4.82.48L54.71,29l-4.18-2.45c-.69-.41-1.4-.84-2.07-1.21A5.42,5.42,0,0,0,46.26,24.59Z"/><path d="M40.44,29.27A35.37,35.37,0,0,1,33,31.83l.16-4.14A33.2,33.2,0,0,0,40.44,29.27Z"/><path d="M41.69,45.05a6.56,6.56,0,0,0-3.49.39,34.56,34.56,0,0,0-3.27,1.46,24.44,24.44,0,0,1-3.59,1.46,10.08,10.08,0,0,1-4.39.33l1.1-4a6.29,6.29,0,0,0,2.81.59,20.27,20.27,0,0,0,3.44-.35A36.42,36.42,0,0,1,38,44.42,7.17,7.17,0,0,1,41.69,45.05Z"/><path d="M34.66,59.93A11.2,11.2,0,0,0,31.35,59c-1.13-.17-2.28-.29-3.43-.39l-3.47-.29a33,33,0,0,1-3.67-.45L22.15,54a31,31,0,0,0,3,1.33l3.26,1.3c1.09.45,2.17.91,3.24,1.42A11.94,11.94,0,0,1,34.66,59.93Z"/></g></g></svg>