<svg xmlns="http://www.w3.org/2000/svg" viewBox="0 0 65.48 92.95"><defs><style>.cls-1{fill:#736357;}</style></defs><g id="Layer_2" data-name="Layer 2"><g id="back_legs" data-name="back legs"><path class="cls-1" d="M42.94,58c-2-6.36-9.18-18.58-12.37-29.28-1.7-5.7-1.94-8.45-.91-14.52C31.4,11,27,6.78,23.14,8c0-3-8.77-7.85-9.79-1.79-3.79-2.49-8.25-.93-6,5.5-3.08-2.17-8.94,3.12-3.95,8.48,6.88,9,10.44,21.48,15.48,27.84"/><path d="M42.94,58c-1.51-3.58-3.51-6.9-5.34-10.33a93.36,93.36,0,0,1-5-10.54A76.38,76.38,0,0,1,28.78,26a24.52,24.52,0,0,1-.73-6,39.71,39.71,0,0,1,.62-5.93,1,1,0,0,1,.11-.31,2.41,2.41,0,0,0,.13-1.92A4.21,4.21,0,0,0,27.66,10a4.51,4.51,0,0,0-4.22-1,1,1,0,0,1-1.25-.63,1.28,1.28,0,0,1-.05-.27V8a2.06,2.06,0,0,0-.41-1,6.32,6.32,0,0,0-1-1,8.2,8.2,0,0,0-2.6-1.44,3.79,3.79,0,0,0-2.58-.1,2.31,2.31,0,0,0-1.22,1.9h0a1,1,0,0,1-1.53.66,5.85,5.85,0,0,0-2.39-.93,2.38,2.38,0,0,0-2,.54,2.73,2.73,0,0,0-.64,2.07,8.9,8.9,0,0,0,.55,2.66v0A1,1,0,0,1,6.8,12.55a2.17,2.17,0,0,0-2.21,0,3.79,3.79,0,0,0-1.8,1.9,3.89,3.89,0,0,0-.14,2.63,6.45,6.45,0,0,0,1.5,2.47h0l0,.07A56.6,56.6,0,0,1,8.6,26.44c1.29,2.36,2.51,4.74,3.63,7.17s2,5,3,7.38a47.66,47.66,0,0,0,3.65,7.06,39,39,0,0,1-4.58-6.59c-1.34-2.32-2.6-4.67-3.88-7s-2.3-4.76-3.59-7a55.57,55.57,0,0,0-4.23-6.59l.06.07A8.49,8.49,0,0,1,.73,17.62a5.84,5.84,0,0,1,.23-4,5.77,5.77,0,0,1,2.76-2.9,4.74,4.74,0,0,1,2.07-.49A3.76,3.76,0,0,1,8,10.92L6.43,12.07a11,11,0,0,1-.67-3.28A4.73,4.73,0,0,1,7,5.24a4.39,4.39,0,0,1,3.65-1.09A7.73,7.73,0,0,1,13.9,5.39l-1.54.67a5.58,5.58,0,0,1,.71-1.94,3.82,3.82,0,0,1,1.7-1.45,5.66,5.66,0,0,1,4,0A10,10,0,0,1,22,4.5a8.06,8.06,0,0,1,1.34,1.39A3.83,3.83,0,0,1,24.14,8l-1.3-1A6,6,0,0,1,26.14,7,7.05,7.05,0,0,1,29,8.52a6.19,6.19,0,0,1,1.84,2.72,4.42,4.42,0,0,1-.28,3.48l.1-.31A37.5,37.5,0,0,0,30.05,20a22.08,22.08,0,0,0,.68,5.52A74.57,74.57,0,0,0,34.42,36.4C35.88,40,37.67,43.39,39,47c.73,1.8,1.45,3.61,2.13,5.43A48.12,48.12,0,0,1,42.94,58Z"/><path class="cls-1" d="M7.37,11.73A12.27,12.27,0,0,0,10,16.15"/><path d="M8.14,11.42a25.38,25.38,0,0,0,.69,2.45A9.43,9.43,0,0,0,10,16.15a9.3,9.3,0,0,1-1.88-1.88,23.35,23.35,0,0,1-1.5-2.22.83.83,0,0,1,.27-1.15A.84.84,0,0,1,8,11.17,1.09,1.09,0,0,1,8.14,11.42Z"/><path class="cls-1" d="M13.35,6.23c.48,2.11,1.19,2.88,1.68,5"/><path d="M14.16,6a12.69,12.69,0,0,0,.41,2.53A15,15,0,0,1,15,11.22a14.34,14.34,0,0,0-1.22-2.33,14.82,14.82,0,0,1-1.27-2.48v0A.85.85,0,0,1,13,5.3a.84.84,0,0,1,1.08.49A1.14,1.14,0,0,1,14.16,6Z"/><path class="cls-1" d="M23.14,8c-.45,2.69-1.28,2.6-1.62,4.62"/><path d="M24,8.16a8.62,8.62,0,0,1-1.19,2.39c-.26.35-.52.65-.73,1a5.56,5.56,0,0,0-.52,1.1,5.47,5.47,0,0,1,.14-1.26c.1-.43.26-.83.38-1.21a7.34,7.34,0,0,0,.28-2.29.85.85,0,0,1,1.69,0,.76.76,0,0,1-.05.27Z"/><path class="cls-1" d="M49.94,60.35c-12-17-29.38-39.92-38.56-22.28s9.1,52.82,54.1,54.86"/><path d="M49.94,60.35c-3.79-4.62-7.54-9.27-11.55-13.64a88.12,88.12,0,0,0-5.94-6.55,37.2,37.2,0,0,0-6.76-5.46C23.28,33.23,20.47,32.25,18,33a7.62,7.62,0,0,0-3.29,2.08,15.57,15.57,0,0,0-2.39,3.43c-2.6,5.06-2.7,11.17-1.3,16.75a41,41,0,0,0,7.87,15.44A52.52,52.52,0,0,0,24.94,77,55.4,55.4,0,0,0,32,82.2a62,62,0,0,0,16.1,7,82.66,82.66,0,0,0,17.38,3.74,75.9,75.9,0,0,1-17.92-1.81A64.25,64.25,0,0,1,30.94,83.9a58.34,58.34,0,0,1-7.32-5.41,54.43,54.43,0,0,1-6.32-6.56A43.23,43.23,0,0,1,9,55.72a30.69,30.69,0,0,1-.9-9.17,22.55,22.55,0,0,1,2.38-9,17.38,17.38,0,0,1,2.72-3.89,9.45,9.45,0,0,1,4.19-2.61,9.3,9.3,0,0,1,4.94,0A16.58,16.58,0,0,1,26.71,33a39.63,39.63,0,0,1,7.14,5.75,87.28,87.28,0,0,1,6.09,6.69C43.55,50.24,46.82,55.25,49.94,60.35Z"/><path d="M28,80.82a57.94,57.94,0,0,1,6.62-5.37,26.49,26.49,0,0,0,5.85-5.59,23.68,23.68,0,0,1-1.74,3.81,36.39,36.39,0,0,1-2.32,3.53,52.79,52.79,0,0,0-4.44,6.66Z"/><path d="M16.62,69.27a28.73,28.73,0,0,0,4-2.53,31.07,31.07,0,0,0,3.6-3.24c1.16-1.2,2.32-2.49,3.61-3.65A17,17,0,0,1,32.07,57a16.25,16.25,0,0,0-3.32,3.71C27.83,62,27.05,63.51,26.2,65a33.22,33.22,0,0,1-3,4.4,33,33,0,0,1-3.73,3.94Z"/><path d="M10.69,56.25a14.7,14.7,0,0,0,6.67-2.16C19.5,52.8,21.61,51,24,49.83c-1.91,1.84-3.21,4.05-5,6.15a18,18,0,0,1-3.15,2.93A20.23,20.23,0,0,1,12,61.09Z"/><path d="M8.76,44.24a21.73,21.73,0,0,0,6.71.09c1.19-.13,2.42-.31,3.66-.4a12.43,12.43,0,0,1,3.71.17,12,12,0,0,0-3.41,1c-1.08.49-2.14,1-3.25,1.59a25.45,25.45,0,0,1-7.42,2.51Z"/><path d="M4.27,14.42a4.46,4.46,0,0,1-1.7-.75c-.41-.27-.44-.83-.7-1.26s-.54-.85-.85-1.27S.36,10.3,0,9.86l.12-.22a9.07,9.07,0,0,1,1.66.51A7.31,7.31,0,0,1,3.31,11c.48.34,1.13.62,1.32,1.23a2.41,2.41,0,0,1-.14,2.06Z"/><path d="M9.66,8.08A15.16,15.16,0,0,1,8.06,7c-.4-.28-.47-.87-.83-1.34S6.5,4.73,6.1,4.24s-.82-1-1.2-1.5l.15-.2c.62.21,1.19.46,1.8.7a12.46,12.46,0,0,1,1.75,1c.55.38,1.32.72,1.58,1.48A2.4,2.4,0,0,1,9.91,8Z"/><path d="M18.37,6.34a2.72,2.72,0,0,1-1.21-1.57c-.2-.56.14-1.12.28-1.66A10.3,10.3,0,0,1,18,1.51,11.79,11.79,0,0,1,18.71,0L19,.05l.48,3.17c.08.51.41,1,.23,1.5a3.4,3.4,0,0,1-1,1.6Z"/><path d="M26.84,11.54a2.63,2.63,0,0,1-1-2,3.49,3.49,0,0,1,.72-1.83,12.49,12.49,0,0,1,1-1.65,9.84,9.84,0,0,1,1.29-1.45l.21.14a16.1,16.1,0,0,0-.34,1.79c-.1.6-.18,1.19-.25,1.76s.11,1.21-.17,1.69a5.76,5.76,0,0,1-1.24,1.57Z"/><path d="M16.45,25.8A30.51,30.51,0,0,1,20,25a10.08,10.08,0,0,1,3.89.13c.67.16,1.23.36,1.67.41a6,6,0,0,0,1.32-.05,17.31,17.31,0,0,1,3.83-.35l-1,4.9a15.7,15.7,0,0,0-3.16-.82,8.27,8.27,0,0,1-2.11-.76,17.49,17.49,0,0,1-1.53-1,8.16,8.16,0,0,0-3-1.19A28,28,0,0,0,16.45,25.8Z"/><path d="M16.5,20.93a6.16,6.16,0,0,0-2.06,1.62,20.38,20.38,0,0,0-1.54,2.13,16.76,16.76,0,0,1-1.79,2.37,8.42,8.42,0,0,1-2.92,2L7,24.23A4,4,0,0,0,8.93,24a14,14,0,0,0,2.26-1.13,20.92,20.92,0,0,1,2.53-1.35A6.85,6.85,0,0,1,16.5,20.93Z"/><path d="M27.17,53.2a63.48,63.48,0,0,0,13.27-6.41l1.8,4.66A66.34,66.34,0,0,1,27.17,53.2Z"/><path d="M34,66.8a8.6,8.6,0,0,0,2.43-2c.66-.79,1.2-1.7,1.93-2.63A14.17,14.17,0,0,1,41,59.55a21.24,21.24,0,0,1,3.14-1.94l1.46,4.78a16.8,16.8,0,0,0-2.85.48A11.06,11.06,0,0,0,40,64c-.88.51-1.79,1.21-2.82,1.76A9.18,9.18,0,0,1,34,66.8Z"/></g></g></svg>