<svg xmlns="http://www.w3.org/2000/svg" viewBox="0 0 135.5 89.86"><defs><style>.cls-1{fill:#ffc9dd;stroke-miterlimit:10;}.cls-1,.cls-2,.cls-3,.cls-4,.cls-5,.cls-7{stroke:#000;}.cls-2{fill:#616161;}.cls-2,.cls-3,.cls-4,.cls-5,.cls-7{stroke-linecap:round;stroke-linejoin:round;}.cls-3{fill:#b3b3b3;}.cls-5{fill:#009245;}.cls-6{fill:#fff;}.cls-7{fill:none;stroke-width:2px;}</style></defs><g id="Layer_2" data-name="Layer 2"><g id="Layer_1-2" data-name="Layer 1"><path class="cls-1" d="M40.75,21.36C35.5,13.48,30.84,4.8,24.09.67c-3.37,1.13,0,25.75,3,31.38"/><path class="cls-1" d="M86.13,21.36C91.38,13.48,96.75,4.67,103.5.55c3.38,1.12-.31,28.12-3.31,33.75"/><path class="cls-2" d="M101,24.16a7.08,7.08,0,0,0-2.63.39c.66-1.92,1.45-3.75,1.38-5.74A8.06,8.06,0,0,1,96.53,21a11.58,11.58,0,0,0,1.57-3.64,10.69,10.69,0,0,1-6,1.3A37.36,37.36,0,0,0,101.31,13c-3,.89-8,1.83-10.92,2.94,1.88-1.65,6-3,8.3-4.27L94,12.23l8.08-4.56-4.68.75s4.3-6.93,6.09-7.87C98.59,3,88.93,10.1,84.55,14.47a47.77,47.77,0,0,0-41,.16c-4.3-4.35-14.46-11.51-19.43-14,1.8,1,6.4,7.75,6.4,7.75l-4.68-.75,8.09,4.56-4.68-.58c2.32,1.23,6.42,2.62,8.29,4.27C34.59,14.81,29.64,13.87,26.6,13a37.18,37.18,0,0,0,9.17,5.63,10.67,10.67,0,0,1-6-1.3A11.14,11.14,0,0,0,31.38,21a8.17,8.17,0,0,1-3.21-2.14c-.06,2,.73,3.82,1.39,5.74a7.17,7.17,0,0,0-2.64-.39,38,38,0,0,1,.34,6.44,26,26,0,0,0-2.38,10.82c0,17.4,17.6,35.25,39.31,35.25S103.5,58.82,103.5,41.42a26.09,26.09,0,0,0-2.87-11.81A36.78,36.78,0,0,1,101,24.16Z"/><ellipse class="cls-2" cx="64.94" cy="69.55" rx="13.13" ry="9"/><circle class="cls-2" cx="55.94" cy="63.55" r="10.08"/><circle class="cls-2" cx="73.56" cy="63.55" r="10.08"/><path class="cls-3" d="M53.69,53.42c-.75,2.25,9.75,10.13,9.75,10.13s12.37-8.63,10.12-10.13S54.44,51.17,53.69,53.42Z"/><line class="cls-2" x1="57.81" y1="43.67" x2="53.69" y2="53.05"/><line class="cls-2" x1="70.56" y1="43.3" x2="73.56" y2="53.42"/><path class="cls-2" d="M71.31,45.17c4.13-9.75,10.13-10.5,15.75-2.25C81.81,51.17,75.06,52.3,71.31,45.17Z"/><path class="cls-2" d="M71.31,45.17c4.13-9.75,10.13-10.5,15.75-2.25C81.81,51.17,75.06,52.3,71.31,45.17Z"/><path class="cls-4" d="M71.31,45.17c1.13-5.25,4.88-10.87,10.5-9,5.06,1.69,6.38,6.75,9.75,7.88-4.12,3.75-7.12,6-11.62,6.75A7.24,7.24,0,0,1,71.31,45.17Z"/><path class="cls-5" d="M71.31,45.17c4.13-9.75,10.13-10.5,15.75-2.25C81.81,51.17,75.06,52.3,71.31,45.17Z"/><path class="cls-4" d="M78.57,38.06c-3.88,5.61-2.93,7.37.72,11.18C82.94,43.3,81.06,41.42,78.57,38.06Z"/><path class="cls-4" d="M56.69,44.42c-1.13-5.25-4.88-10.87-10.5-9-5.06,1.69-7.13,7.13-9.75,7.5,4.12,3.75,7.12,6.38,11.62,7.13A7.24,7.24,0,0,0,56.69,44.42Z"/><path class="cls-5" d="M56.69,44.42c-4.13-9.75-10.13-10.5-15.75-2.25C46.19,50.42,52.94,51.55,56.69,44.42Z"/><path class="cls-4" d="M49.43,37.31c3.88,5.61,2.93,7.37-.72,11.18C45.06,42.55,46.94,40.67,49.43,37.31Z"/><circle class="cls-6" cx="45.44" cy="40.3" r="1.5"/><ellipse class="cls-6" cx="60.58" cy="52.86" rx="4.08" ry="1.5"/><circle class="cls-6" cx="76" cy="41.98" r="1.5"/><path class="cls-2" d="M81.63,19.11C86.88,11.23,98.44,2.24,103.5.55,92.07,3,81.44,7.67,75.81,11.42a9.51,9.51,0,0,1,4.5,3"/><path class="cls-2" d="M27.44,30.55a24.67,24.67,0,0,1,6.37-7.5"/><path class="cls-2" d="M42.06,19.67c-5.25-7.87-12.91-17.31-18-19C35.53,3.11,47.31,7.3,52.94,11.05a29.45,29.45,0,0,0-5.28,3.3"/><path class="cls-2" d="M94.19,23.05c3,1.87,4.48,3.92,6.37,6.37"/><path class="cls-7" d="M5.31,72.17c17.25-7.12,37.5-11.62,47.63-12"/><path class="cls-7" d="M1,88.86c8.62-6.75,30.27-22.8,48.7-24"/><path class="cls-7" d="M55.38,67.86c-7.88,1.87-19.88,10.5-23.26,18"/><path class="cls-7" d="M73,59.61c16.12-.38,43.12,3.75,58.5,9"/><path class="cls-7" d="M78.25,63c11.25,1.88,40.13,8.63,56.25,17.25"/><path class="cls-7" d="M72.62,66.73c16.5,1.5,30.76,9.75,37.5,17.25"/><circle cx="61.19" cy="67.3" r="0.56"/><circle cx="48.44" cy="62.42" r="0.56"/><circle cx="55.94" cy="70.67" r="0.56"/><circle cx="52.94" cy="65.8" r="0.56"/><circle cx="57.44" cy="62.8" r="0.56"/><circle cx="52.56" cy="57.55" r="0.56"/><circle cx="76.19" cy="56.42" r="0.56"/><circle cx="69.06" cy="63.17" r="0.56"/><circle cx="73.94" cy="62.42" r="0.56"/><circle cx="69.06" cy="67.67" r="0.56"/><circle cx="73.94" cy="70.3" r="0.56"/><circle cx="79.19" cy="65.8" r="0.56"/></g></g></svg>