<svg xmlns="http://www.w3.org/2000/svg" viewBox="0 0 65.82 160.79"><defs><style>.cls-1{fill:#736357;}</style></defs><g id="Layer_2" data-name="Layer 2"><g id="body"><ellipse class="cls-1" cx="32.91" cy="79.89" rx="31.91" ry="79.89"/><path d="M32.91,0A15.84,15.84,0,0,0,22.6,4.41a25.67,25.67,0,0,0-2,2c-.6.74-1.26,1.43-1.8,2.21l-.85,1.15L17.14,11c-.53.79-1,1.62-1.48,2.44A70.58,70.58,0,0,0,11,23.8,108.79,108.79,0,0,0,7.64,34.7c-1,3.67-1.87,7.36-2.58,11.1S3.8,53.31,3.33,57.09a196.18,196.18,0,0,0,0,45.61,152.85,152.85,0,0,0,4.31,22.39,84.2,84.2,0,0,0,8.55,21c.5.79,1,1.61,1.52,2.36l.81,1.16.86,1.1c.55.75,1.2,1.41,1.81,2.12a27.57,27.57,0,0,0,2,1.9,15.16,15.16,0,0,0,9.72,4.1,15.16,15.16,0,0,0,9.72-4.1,27.57,27.57,0,0,0,2-1.9c.61-.71,1.26-1.37,1.81-2.12l.86-1.1.81-1.16c.55-.75,1-1.57,1.52-2.36a84.2,84.2,0,0,0,8.55-21,152.85,152.85,0,0,0,4.31-22.39,197.47,197.47,0,0,0,1.33-22.81,197.3,197.3,0,0,0-1.33-22.8c-.47-3.78-1-7.55-1.73-11.29s-1.61-7.43-2.58-11.1a103,103,0,0,0-3.32-10.9,69.26,69.26,0,0,0-4.69-10.39c-.49-.81-1-1.65-1.49-2.43L47.9,9.79l-.85-1.15c-.55-.78-1.2-1.48-1.8-2.22a27.5,27.5,0,0,0-2-2A15.79,15.79,0,0,0,32.91,0Zm0,0a14.31,14.31,0,0,1,5.58,1.21,18.74,18.74,0,0,1,4.85,3.06A36.88,36.88,0,0,1,50.8,13a83.12,83.12,0,0,1,9.31,21.13,152.69,152.69,0,0,1,4.36,22.69,197.28,197.28,0,0,1,1.35,23,197.32,197.32,0,0,1-1.35,23,154.23,154.23,0,0,1-4.36,22.69,86.4,86.4,0,0,1-8.77,21.45c-.52.83-1,1.67-1.59,2.47l-.83,1.2L48,151.91c-.58.79-1.28,1.5-1.92,2.25a28,28,0,0,1-2.16,2.05,17.13,17.13,0,0,1-11,4.58,17.13,17.13,0,0,1-11-4.58,28,28,0,0,1-2.16-2.05c-.64-.75-1.34-1.46-1.92-2.25l-.91-1.16-.83-1.2c-.58-.8-1.07-1.64-1.59-2.47a86.4,86.4,0,0,1-8.77-21.45,154.23,154.23,0,0,1-4.36-22.69A197.32,197.32,0,0,1,0,79.89,175.2,175.2,0,0,1,5.71,34.16,82.44,82.44,0,0,1,15,13a37.8,37.8,0,0,1,7.47-8.76,18.93,18.93,0,0,1,4.86-3A14.31,14.31,0,0,1,32.91,0Z"/><path d="M61.75,114.48c-4.43,2.41-16.52,5.86-21.14,3a2.91,2.91,0,0,1-1-.9,1.45,1.45,0,0,1-.21-.78c.11-2.09,3.27-4.39,7.24-5.07,3.56-.62,12.75-4.39,16.21-5.35a5.6,5.6,0,0,0,0-2.26c-2.88.09-13.45,2.34-14.42,2.39-2.72.13-7.68,1.68-7.35-1.57.21-2.15,3.39-3.64,6.2-4.48,2.19-.66,14.9-3.36,16.64-4.62l.56-5c-4.72,1.66-10.7,4.06-15.84,4.51-1.67.15-3.39.21-5,.45-1,.14-7.12-1.51-6.2-3.64,1.22-2.81,5.89-2.24,9.24-2.81a26,26,0,0,0,8.82-3.18c1.46-.8,2.9-2.29,4.56-2.78a9.59,9.59,0,0,0,4.46-2.24c.78-.81,1-4.12,0-3.72-5.8,2.12-11.74,2.16-17.58,4.11-3.06,1-5.61,2-9,1.72a1.88,1.88,0,0,1-1.33-.44c-.37-.44-.05-1,.26-1.49,3.06-4.46,9.38-6.14,14.79-7.83,4.47-1.39,9.25-2.78,12.82-3.52,0-2.24,0-1.49-.89-3A130,130,0,0,1,49,70c-2,.42-11.63,2-10.74-1.27.59-2.17,1.94-5.07,5-5.41,8.63-.94,15.9-5.65,20.23-8.39v-3c-1.45.27-13,4.14-14.58,4.24-2,.13-7.28,2-8.11-.08a2.76,2.76,0,0,1,.56-2.57c1.47-2.07,5.42-2.3,7.69-3.8a11.26,11.26,0,0,1,2.09-1.18c1-.4,10.47-5,10.56-4.81l-1.36-2.27L60,40.73c-2.83.81-13.79,4.32-16.38,5.21-1.91.67-5.39-.23-4.58-2.85.75-2.43,5.11-3.21,7.13-4a25.86,25.86,0,0,0,8.28-5.89c.94-.9,1.95-2.15,1.49-3.37L50.59,33c-1.93,1.14-11,6-12.36,2a2.13,2.13,0,0,1,.15-1.44c1.53-4.06,13.33-7.8,15.33-11.8-2.89,1-9.36,3.86-12.27,4.81-1.92.62-5.73,1.39-5.65-1.24S41,22,43.06,21.1c3.16-1.42,6.43-4.53,9.87-5.32L41.5,18.44c-1.9.44-3.83.87-5.8,1.42l-1.51.45c-.52-1.14-1.07-2.28-1.69-3.42a1.12,1.12,0,0,0-.59-.49,1.28,1.28,0,0,0-1.55.49c-.68,1.27-1.28,2.54-1.85,3.81l-1.2-.3c-.78-.19-1.55-.37-2.26-.56l-1-.28-1.17-.34c-1.56-.44-3.08-.91-4.6-1.43s-3-1.08-4.53-1.69q1.61,1.59,3.35,3.12c1.66,1.45,11.68,5.77,4.61,8C19,28,12.48,25,10.71,23.69c.66,1,1.28,2,2,3s6.17,2.57,7.05,3.28c.58.47,5.14,1.16,5.43,1.82.9,2.11-.68,3.17-2.68,3-2.35-.22-9.65.38-11.59-.74,1.22,1.63,8,2.53,9.81,3.72,3,2,5.2,1.89,4.62,5.55a2.71,2.71,0,0,1-.4,1.2C23.6,46.37,7,41,5,40.66L4.9,42.1a36.43,36.43,0,0,0,9.59,6.08c5.55,2.35,12.7,3.39,11.59,5.22-.63,1-1.47,4.18-3.57,4.47-6.29.84-17-3.58-19.65-4.41A5.64,5.64,0,0,1,2,57.12c.76.49,11.82,4.16,12.49,4.47,4.22,1.92,6.84,1.69,8.17,5.91,2,6.2-18.14-.35-20.87-1.24l-.68,4.27s19.69,5,22.06,8.52c2,2.93-1.63,1.71-5.12,1.91C14,81.19,3.78,77.23,1.11,78a12.87,12.87,0,0,0,0,5.21c3.15,2,8.25,1.79,11.79,3.28a17.9,17.9,0,0,0,4.69,1.4,7.4,7.4,0,0,1,3.94,1.35,5.94,5.94,0,0,1,1.93,3,2.29,2.29,0,0,1,.13,1.18c-.53,2.24-3.67.75-5.54,1-.55.06-5.72-.83-6.24-.75s-9.66-2.18-10.7-2.23v3.72c3.57,1.25,10,3.11,15.16,4.47,3.88,1,6.93,1.2,8.37,3.78a2.37,2.37,0,0,1,.39,1.21c0,.84-.87,1.52-1.82,1.79a20.93,20.93,0,0,1-5.16.67c-1.65,0-13.57-2.46-15.16-3l.4,2.33c2.58,2,14.67,5.15,17.44,6.61,2.5,1.32,4.24,1.9,5.45,4.06,1.93,3.45-2.67,3.16-5.27,2.59C18,119,7.54,116,4.68,114.48v3c2.39,1.63,8.92,3.3,10.7,4.47s14.19,5.38,9.61,8.37c-2.62,1.71-14.57-2.7-17.64-3.16,0,.75,0,.75.89,1.49,2.84,1.27,8.84,2.89,10.83,4.23,3.71,2.51,6.34,3.22,8.2,7.16,2.42,5.09-18.13-5.43-16.35-2.45,1.22,2.05,7,5.22,9.93,7.21,3.55,2.4,8,3.45,10.83,6.52-1.06-1.12,5.62-4.85,6.54-5.15,3-1,6.23-1.51,9.26-2.62s8.07-6.11,8-7.45c-.63,1.23-9.21,4.46-10.46,5a17,17,0,0,1-4.11,1.08c-1.8.3-3.75,1.14-3.75-1.1,0-3.66,0-3.69,3.75-5.23a35.76,35.76,0,0,0,5.13-2.65c1.58-1,5.33-2,6.76-3.08.93-.66,3.94-2.2,5.36-3,.89-1.49.41-1.75.89-2.23-1.62.79-7.93,3.34-9.56,3.83-2.47.77-8.48,3.26-11.19,2.47S36,127.23,38,126c2.79-1.63,7.07-2.72,10.36-4.09,3.56-1.49,11.34-3,12.63-4.39Z"/></g></g></svg>