<svg xmlns="http://www.w3.org/2000/svg" viewBox="0 0 40.74 117.43"><defs><style>.cls-1{fill:#736357;}</style></defs><g id="Layer_2" data-name="Layer 2"><g id="back_legs" data-name="back legs"><path class="cls-1" d="M7.26,117.43c6.44-16.15,35.52-26.52,33-46.19-1.56-12.15-4.36-39.17-4-45.94C36.47,20.23,40,7.78,33,7.67c0-3-5.12-6.41-7.22-1.82C24.37,2.11,19.11,2.93,18,7.67c-4.23.59-4.32,5.11-3.78,8.51-5.56,4.3,1.59,7.87,3.48,12.31,5.29,12.44,2.27,34,2,39.42S9.48,83.52,0,85.71"/><path d="M7.26,117.43A25.08,25.08,0,0,1,11,110.51a54.08,54.08,0,0,1,5.18-5.92c3.71-3.7,7.69-7.07,11.47-10.57s7.51-7.12,10-11.58A18.77,18.77,0,0,0,40,75.24c.31-2.54-.22-5.1-.49-7.7-1.21-10.33-2.47-20.66-3.26-31-.18-2.6-.35-5.19-.44-7.8,0-1.31-.07-2.62,0-3.95s.31-2.61.49-3.9a39.86,39.86,0,0,0,.57-7.68A7.81,7.81,0,0,0,36,9.64,3.32,3.32,0,0,0,33,8.07a.4.4,0,0,1-.39-.4,3.49,3.49,0,0,0-.89-2.08,4.62,4.62,0,0,0-1.9-1.38,2.64,2.64,0,0,0-2.2.06A3.53,3.53,0,0,0,26.12,6h0a.36.36,0,0,1-.48.17.41.41,0,0,1-.19-.2,3.18,3.18,0,0,0-1.57-1.82A3.28,3.28,0,0,0,21.47,4a4.39,4.39,0,0,0-2.06,1.42A5.9,5.9,0,0,0,18.3,7.74.33.33,0,0,1,18,8a4.12,4.12,0,0,0-2.22.95A4.28,4.28,0,0,0,14.58,11a12.5,12.5,0,0,0-.1,5.1.29.29,0,0,1-.1.27h0a6,6,0,0,0-1.59,1.82,2.84,2.84,0,0,0-.15,2.25,13.88,13.88,0,0,0,2.84,4.07,14.55,14.55,0,0,1,2.87,4.4,33.67,33.67,0,0,1,1.53,5A59.59,59.59,0,0,1,21.16,44.2c.17,3.44.12,6.89-.05,10.33s-.47,6.86-.79,10.27l-.22,2.56A10.6,10.6,0,0,1,20,68.68,6.35,6.35,0,0,1,19.59,70a17.69,17.69,0,0,1-2.66,4.5,34.57,34.57,0,0,1-7.59,7A27.44,27.44,0,0,1,0,85.71a27.34,27.34,0,0,0,9.14-4.52,35.37,35.37,0,0,0,7.32-7.08,17.28,17.28,0,0,0,2.47-4.38,7.08,7.08,0,0,0,.31-1.18,7.94,7.94,0,0,0,.11-1.24l.19-2.57c.29-3.42.54-6.83.67-10.25.21-6.82.18-13.72-1.27-20.36a33.51,33.51,0,0,0-1.43-4.86,13.59,13.59,0,0,0-2.68-4.19A14.39,14.39,0,0,1,12,20.67a3.54,3.54,0,0,1,.26-2.74A6.38,6.38,0,0,1,14,16h0l-.11.27A13.09,13.09,0,0,1,14,10.86a5,5,0,0,1,1.4-2.39,4.83,4.83,0,0,1,2.55-1.12l-.27.24A6.41,6.41,0,0,1,18.9,5a5,5,0,0,1,2.37-1.65,3.81,3.81,0,0,1,4.86,2.36l-.67,0a4.24,4.24,0,0,1,1.82-2.09,3.41,3.41,0,0,1,2.81-.12,5.42,5.42,0,0,1,2.24,1.59,4.27,4.27,0,0,1,1.08,2.58L33,7.27a4.84,4.84,0,0,1,2.06.47A4,4,0,0,1,36.65,9.2a8.51,8.51,0,0,1,1.07,3.92A41,41,0,0,1,37.18,21c-.17,1.29-.37,2.58-.47,3.85s-.05,2.55,0,3.84c.1,2.59.28,5.18.48,7.77.82,10.35,1.7,20.72,2.93,31l.48,3.87a19.41,19.41,0,0,1,.11,4,21.22,21.22,0,0,1-2.13,7.63,32.59,32.59,0,0,1-4.34,6.64,58.69,58.69,0,0,1-5.42,5.72c-3.83,3.59-7.91,6.81-11.73,10.29A68.61,68.61,0,0,0,11.61,111,28.85,28.85,0,0,0,7.26,117.43Z"/><path class="cls-1" d="M31.92,5.78c2,4,.1,8.19.06,10"/><path d="M31.92,5.78a6.1,6.1,0,0,1,1.75,5,9.36,9.36,0,0,1-.57,2.6A19,19,0,0,1,32,15.78a7.33,7.33,0,0,1-.23-2.65c0-.85.11-1.65.17-2.45S32,9.11,32,8.31,32,6.71,31.92,5.78Z"/><path class="cls-1" d="M26.05,5.75l-.12,6.32"/><path d="M26.93,5.77l-1,6.3-.75-6.34a.88.88,0,0,1,1.75-.21A1,1,0,0,1,26.93,5.77Z"/><path class="cls-1" d="M20.14,14.29c-1.22-2.51-2.22-5.51-1.22-8.51"/><path d="M20.14,14.29a6.08,6.08,0,0,1-1.52-1.8,6.93,6.93,0,0,1-.8-2.19,5.15,5.15,0,0,1,1.1-4.52L19.21,8c.09.68.21,1.34.33,2l.37,2A13.19,13.19,0,0,1,20.14,14.29Z"/><path class="cls-1" d="M13.92,14.78c1,5,3.09,6.18,3.89,9.8"/><path d="M14,14.76A10.9,10.9,0,0,1,15.44,17c.4.73.54,1.58.88,2.38s.71,1.61,1,2.48a10.71,10.71,0,0,1,.57,2.66.11.11,0,0,1-.09.1.08.08,0,0,1-.08-.06,12.37,12.37,0,0,0-1.19-2.32c-.46-.73-1-1.44-1.46-2.21a7.38,7.38,0,0,1-1.29-2.45,5.55,5.55,0,0,1,0-2.83.09.09,0,0,1,.12-.06A.09.09,0,0,1,14,14.76Z"/><path d="M11,88.18a15.12,15.12,0,0,0,1.05,4.36c.28.69.59,1.35.93,2,.18.33.36.6.55,1s.35.8.49,1.18c.57,1.54,1,3,1.44,4.43.23.71.47,1.4.73,2a5.08,5.08,0,0,0,.8,1.43l-4.31,2.53a9.64,9.64,0,0,1-.79-2.82c-.13-.84-.2-1.64-.26-2.42-.12-1.56-.17-3.08-.33-4.49,0-.35-.09-.69-.15-1L11,95.24a21.64,21.64,0,0,1-.29-2.39A15.77,15.77,0,0,1,11,88.18Z"/><path d="M21.37,83c1,2.25,1.56,4.72,2.61,6.75a11.5,11.5,0,0,0,4.18,4.72l-3.49,3.59a16.11,16.11,0,0,1-2.1-3.69,15.56,15.56,0,0,1-1-3.92C21.25,87.85,21.55,85.45,21.37,83Z"/><path d="M26,24.62a24.08,24.08,0,0,0,5.17-2.1,16.83,16.83,0,0,1,5.93-1.93L36.75,25a13.3,13.3,0,0,0-5-.33A24.41,24.41,0,0,1,26,24.62Z"/><path d="M25.92,34.78a22.87,22.87,0,0,1,5.22-2.58,43.33,43.33,0,0,1,5.72-1.61L37,35a40,40,0,0,0-5.48-.61A21.44,21.44,0,0,0,25.92,34.78Z"/><path d="M30.77,60l2.13.31.53.07.48,0c.32,0,.64,0,1,0a12.27,12.27,0,0,0,1.93-.25,5.69,5.69,0,0,0,1.62-.55l.39,5a10.78,10.78,0,0,1-2.49-.72,15.41,15.41,0,0,1-2.11-1.06c-.34-.2-.66-.41-1-.64l-.47-.37-.4-.36Z"/><path d="M31.42,67.28a22.71,22.71,0,0,1,2.29,1.37,5.24,5.24,0,0,0,2.14.87,10.77,10.77,0,0,0,4.41-.74l.31,5a21,21,0,0,1-2.92-.64,9.7,9.7,0,0,1-2.86-1.35,7.22,7.22,0,0,1-2-2.25A23,23,0,0,0,31.42,67.28Z"/><path d="M25.07,48a18.68,18.68,0,0,0,6-.82c.9-.31,1.8-.73,2.78-1.17s2-.86,3-1.25l.87,4.92c-1,0-2,0-3.07,0s-2.16.08-3.31,0a14.7,14.7,0,0,1-3.3-.6A31.64,31.64,0,0,1,25.07,48Z"/><path d="M16,11.23a4.78,4.78,0,0,1-1.47-.94c-.37-.32-.43-.85-.7-1.27A12.75,12.75,0,0,0,13,7.78a13.21,13.21,0,0,0-1.07-1.19L12,6.41a7.87,7.87,0,0,1,1.6.58A7.59,7.59,0,0,1,15,8c.45.37,1,.7,1.22,1.29a2.52,2.52,0,0,1,0,1.92Z"/><path d="M22,6.16a5.23,5.23,0,0,1-1.3-1c-.32-.31-.34-.81-.57-1.22a8.85,8.85,0,0,0-.81-1.18,8.48,8.48,0,0,0-1.06-1.11l.08-.18a5.84,5.84,0,0,1,1.59.49,6,6,0,0,1,1.43,1c.43.38,1,.75,1.13,1.37a2.23,2.23,0,0,1-.3,1.88Z"/><path d="M29.68,6.62a4.43,4.43,0,0,1-.84-1.69,5.82,5.82,0,0,1,.05-1.61,10.81,10.81,0,0,0-.13-1.61A4.27,4.27,0,0,0,28.22.15L28.36,0a4,4,0,0,1,1.33,1.33,7.21,7.21,0,0,1,.78,1.72,3.78,3.78,0,0,1,.37,1.83,2.91,2.91,0,0,1-1,1.77Z"/><path d="M35.06,11.73a4.31,4.31,0,0,1-.57-1.66c-.09-.49.19-1,.25-1.45a14.89,14.89,0,0,0,.11-1.52,14.66,14.66,0,0,0-.07-1.61L35,5.42a7.44,7.44,0,0,1,.86,1.47,7.13,7.13,0,0,1,.52,1.66,3.21,3.21,0,0,1,.13,1.76,2.55,2.55,0,0,1-1.22,1.48Z"/><path d="M28.56,29.47c-1.83,0-3.68,0-5.42.12a12.61,12.61,0,0,0-4.69,1.31l-1.07-4.25a15.93,15.93,0,0,1,6,.77C25.23,28,26.87,28.79,28.56,29.47Z"/><polygon points="30.84 41.09 20.79 42.98 20.76 38.61 30.84 41.09"/><path d="M29.32,60.21a41,41,0,0,1-9.42,1.15l1-4.28A38.47,38.47,0,0,0,29.32,60.21Z"/><path d="M27.42,78.28A16.43,16.43,0,0,1,30,80.09c.8.67,1.57,1.37,2.33,2s1.53,1.32,2.3,1.87a7.93,7.93,0,0,0,2.2,1.2L34,89.36a12.65,12.65,0,0,1-2.24-2.88c-.57-1-1-1.91-1.48-2.85s-.87-1.86-1.32-2.76A15.54,15.54,0,0,0,27.42,78.28Z"/><path d="M28.84,54.29a11.61,11.61,0,0,1-2.11.27c-.69,0-1.37.11-2,.2a25.29,25.29,0,0,0-3.83.82l.22-5a29.35,29.35,0,0,1,4.07,1.71c.64.33,1.26.68,1.86,1A10.5,10.5,0,0,0,28.84,54.29Z"/><path d="M17.73,89.29c-.89-1.84-1.64-3.77-2.62-5.45A9.78,9.78,0,0,0,11.65,80l3.53-3.53a13.71,13.71,0,0,1,2.32,6.58C17.74,85.23,17.65,87.25,17.73,89.29Z"/><path d="M27.09,75.83a7.88,7.88,0,0,1-2.5-1.47c-.77-.63-1.44-1.35-2.1-2a7.22,7.22,0,0,0-1.92-1.43,3.29,3.29,0,0,0-1.75-.24L20,65.85a7.67,7.67,0,0,1,3.07,2.31A10.31,10.31,0,0,1,24.59,71c.34.9.61,1.76,1,2.57A7.41,7.41,0,0,0,27.09,75.83Z"/></g></g></svg>