<svg xmlns="http://www.w3.org/2000/svg" viewBox="0 0 46.84 105.86"><defs><style>.cls-1{fill:#736357;}</style></defs><g id="Layer_2" data-name="Layer 2"><g id="back_legs" data-name="back legs"><path class="cls-1" d="M32.7,105.86c-13.49-11.4-33.19-22-32-38,1-13.2,3.76-32.6,3-39.85C3,22.6-1.72,9.46,6.13,8.83c-.13-3.19,5.36-7.27,8-2.49C15.49,2.21,21.46,2.7,23,7.73c4.79.32,5.18,5.18,4.8,8.88,2.05,4.95-1.29,8.59-3.13,13.51C19.53,43.9,22.94,57,23.59,62.81s12.46,16,23.25,17.71"/><path d="M32.7,105.86C25.06,100.29,17,95.34,10,88.73A34.36,34.36,0,0,1,1.54,77.08,19.91,19.91,0,0,1,0,69.94a30.41,30.41,0,0,1,.18-3.61L.5,62.79C1.39,53.38,2.65,44,3.17,34.6a42.72,42.72,0,0,0-.08-7c-.34-2.29-.92-4.61-1.32-6.95a25.66,25.66,0,0,1-.46-7.18A6.59,6.59,0,0,1,2.67,10,4.85,4.85,0,0,1,6.1,8.4l-.4.44A4.57,4.57,0,0,1,6.79,6,6.07,6.07,0,0,1,9.19,4.1,4,4,0,0,1,12.27,4a4.69,4.69,0,0,1,2.2,2.13l-.71.07a4.31,4.31,0,0,1,2.05-2.5A4.6,4.6,0,0,1,19,3.32a5.7,5.7,0,0,1,2.77,1.57,6.9,6.9,0,0,1,1.58,2.73l-.3-.24a5.55,5.55,0,0,1,2.86,1,5.23,5.23,0,0,1,1.76,2.45,13.42,13.42,0,0,1,.44,5.83h0l0-.15a8.15,8.15,0,0,1,.67,5,17.87,17.87,0,0,1-1.7,4.69c-.69,1.47-1.44,2.89-2,4.39l-.78,2.28-.65,2.32a53.79,53.79,0,0,0-.92,19.23c.17,1.61.41,3.22.64,4.82l.35,2.42a12.39,12.39,0,0,0,.4,2.35,14.22,14.22,0,0,0,2.39,4.12,29.78,29.78,0,0,0,3.32,3.51,40.29,40.29,0,0,0,7.89,5.63,30.19,30.19,0,0,0,9.12,3.28,30.09,30.09,0,0,1-9.21-3.1,40.3,40.3,0,0,1-8.08-5.5,30.76,30.76,0,0,1-3.41-3.53,14.45,14.45,0,0,1-2.52-4.25,7.11,7.11,0,0,1-.29-1.23l-.17-1.2-.38-2.41c-.26-1.6-.52-3.21-.71-4.83a54.37,54.37,0,0,1,.65-19.53A38.19,38.19,0,0,1,26.1,25.7a20.44,20.44,0,0,0,1.72-4.41,8.21,8.21,0,0,0-.28-4.57v0a.22.22,0,0,1,0-.11h0A12.72,12.72,0,0,0,27.07,11,4.56,4.56,0,0,0,25.52,8.9,4.73,4.73,0,0,0,23,8.07a.36.36,0,0,1-.3-.24,6.16,6.16,0,0,0-1.44-2.44A4.85,4.85,0,0,0,18.84,4a3.84,3.84,0,0,0-2.67.35A3.54,3.54,0,0,0,14.5,6.46a.39.39,0,0,1-.48.25.37.37,0,0,1-.22-.18h0A3.87,3.87,0,0,0,12,4.76a3.13,3.13,0,0,0-2.47.1A5.29,5.29,0,0,0,7.44,6.47a3.78,3.78,0,0,0-.88,2.34.43.43,0,0,1-.39.44,4,4,0,0,0-2.83,1.32,5.7,5.7,0,0,0-1.13,3,24.91,24.91,0,0,0,.5,6.91c.41,2.31,1,4.59,1.37,7a44.12,44.12,0,0,1,.14,7.17C3.75,44.12,2.55,53.5,1.73,62.9l-.3,3.53a25.26,25.26,0,0,0-.11,3.46,17.73,17.73,0,0,0,1.61,6.59A28.38,28.38,0,0,0,6.57,82.3a61.3,61.3,0,0,0,4.72,5.1C18,93.85,25.88,99.25,32.7,105.86Z"/><path class="cls-1" d="M7,7.38c-2,6,.92,9.73,1.07,11.67"/><path d="M7,7.38c.07,1.08,0,2,.08,3s.12,1.86.26,2.78S7.61,15,7.8,16A7.91,7.91,0,0,1,8,19.05c-.51-.91-1.11-1.68-1.57-2.62a9.6,9.6,0,0,1-1-3A8,8,0,0,1,7,7.38Z"/><path class="cls-1" d="M14.1,6.48c.31,3.89.33,6.19.49,8.13"/><path d="M15,6.41l-.42,8.2-1.4-8v0a.91.91,0,0,1,.74-1.06A.93.93,0,0,1,15,6.21,1.41,1.41,0,0,1,15,6.41Z"/><path class="cls-1" d="M22.66,15.57A20.26,20.26,0,0,0,22,5.38"/><path d="M22.66,15.57c-.17-.92-.26-1.75-.36-2.59s-.18-1.65-.25-2.47S21.92,8.86,21.9,8A19.66,19.66,0,0,1,22,5.38,7.16,7.16,0,0,1,23.3,7.74a10.32,10.32,0,0,1,.57,2.62,9.74,9.74,0,0,1-.15,2.69A6,6,0,0,1,22.66,15.57Z"/><path class="cls-1" d="M28,14.38c0,3-4.15,5.4-4.82,9.36"/><path d="M28,14.38a3.86,3.86,0,0,1-.36,2.8,12.74,12.74,0,0,1-1.45,2.31l-1.58,2a22.17,22.17,0,0,0-1.43,2.21A5.09,5.09,0,0,1,23.54,21a10.21,10.21,0,0,1,1.4-2.38c.54-.72,1.12-1.37,1.66-2A7.63,7.63,0,0,0,28,14.38Z"/><path d="M22.47,98.35a29.34,29.34,0,0,0,2.39-3.71c.76-1.34,1.48-2.72,2.18-4.11s1.37-2.81,2-4.24a40,40,0,0,0,1.68-4.38A39.23,39.23,0,0,1,30,86.59c-.32,1.55-.68,3.1-1.07,4.63s-.83,3.07-1.31,4.61a31.55,31.55,0,0,1-1.78,4.69Z"/><path d="M14.34,91a39.94,39.94,0,0,0,3.77-3.58,23.25,23.25,0,0,0,3.1-4.26,24.56,24.56,0,0,1-1.38,5.29,42.87,42.87,0,0,1-2.36,5Z"/><polygon points="5.55 82.96 17.15 74.63 8.35 85.81 5.55 82.96"/><path d="M13.48,25.36a6.65,6.65,0,0,0-2.22,1.79c-.6.72-1.07,1.55-1.74,2.4a8.8,8.8,0,0,1-2.59,2.31,14.17,14.17,0,0,1-3.29,1.3l-.38-4.55a9.85,9.85,0,0,0,2.42.06A5.9,5.9,0,0,0,8,27.85c.79-.45,1.61-1.08,2.54-1.59A7.27,7.27,0,0,1,13.48,25.36Z"/><path d="M13.05,35.47a11.18,11.18,0,0,0-4,3.16,21.33,21.33,0,0,1-1.95,2,6.71,6.71,0,0,1-3.37,1.63l0-5a2,2,0,0,0,1.57.11,17.36,17.36,0,0,0,2.38-.85,17.59,17.59,0,0,1,2.69-.87A10.34,10.34,0,0,1,13.05,35.47Z"/><path d="M14.7,48.56a35.56,35.56,0,0,1-5.46,4.32,19.05,19.05,0,0,1-3.34,1.6,22.46,22.46,0,0,1-3.64,1l-.07-5a16,16,0,0,0,6.14.11A34.64,34.64,0,0,0,14.7,48.56Z"/><path d="M11.45,60.88c-.63,1-1.11,2.1-1.71,3.16a21,21,0,0,1-2.07,3.14,12.46,12.46,0,0,1-3,2.7,11.06,11.06,0,0,1-4.18,1.5v-5a6.56,6.56,0,0,0,2.69.05A8.71,8.71,0,0,0,6,65.3a17.93,17.93,0,0,0,2.75-2C9.65,62.5,10.5,61.63,11.45,60.88Z"/><path d="M3.69,12.66a3.36,3.36,0,0,1-1.36-1.43,4.49,4.49,0,0,1-.26-1.75C2,8.9,2,8.32,1.91,7.73L1.81,6,2,5.89c.33.51.59,1,.88,1.57s.51,1.07.74,1.61a4.58,4.58,0,0,1,.64,1.62,3.79,3.79,0,0,1-.38,1.91Z"/><path d="M9.78,6.76a3.06,3.06,0,0,1-1-1.5,3.73,3.73,0,0,1,.07-1.59c0-.53.1-1.06.17-1.59S9.16,1,9.28.47h.2c.2.51.35,1,.52,1.54s.3,1,.43,1.55a3.68,3.68,0,0,1,.32,1.55A3.05,3.05,0,0,1,10,6.75Z"/><path d="M19,8.25a4.55,4.55,0,0,1-.93-2,6.4,6.4,0,0,1,.12-2l.16-2.06c.07-.69.1-1.37.12-2.07l.2,0a16,16,0,0,1,.68,2c.18.68.32,1.37.44,2.07a5.89,5.89,0,0,1,.28,2.07,4.33,4.33,0,0,1-.87,2.09Z"/><path d="M25.94,13.84a3.91,3.91,0,0,1-.52-2A5.2,5.2,0,0,1,26,10c.2-.59.4-1.16.56-1.75a6.47,6.47,0,0,0,.28-1.82l.2,0a6.06,6.06,0,0,1,.52,1.94,12,12,0,0,1,0,2,5.26,5.26,0,0,1-.17,1.9,3.86,3.86,0,0,1-1.25,1.68Z"/><path d="M13.74,33.14c1.62-.41,3.28-.72,5-1a38.69,38.69,0,0,1,5.2-.5L23,36.12a34,34,0,0,0-4.47-1.69C17,33.94,15.37,33.49,13.74,33.14Z"/><path d="M18.5,25.91c1.36-.34,2.68-.77,4.11-1.09a16.8,16.8,0,0,1,2.25-.36,7.67,7.67,0,0,1,2.71.19l-2.24,4.47a3.13,3.13,0,0,0-1.13-1,13,13,0,0,0-1.76-.83C21.19,26.81,19.82,26.4,18.5,25.91Z"/><path d="M11.45,43.88A17.56,17.56,0,0,1,17,42.22c1.91-.31,3.84-.49,5.54-.84l-.2,5c-2-.5-3.72-1.15-5.48-1.66A16.22,16.22,0,0,0,11.45,43.88Z"/><path d="M12.45,57.88A16.14,16.14,0,0,1,17,54.71c1.66-.85,3.44-1.53,4.91-2.27L23,57.32c-2,0-3.65-.19-5.39-.19A15,15,0,0,0,12.45,57.88Z"/><path d="M23.45,85.88A49.5,49.5,0,0,1,26.73,79l1.86-3.27a24.44,24.44,0,0,0,1.51-3.12l4.28,2.59a30,30,0,0,1-2.87,2.88l-2.83,2.49A47.53,47.53,0,0,0,23.45,85.88Z"/><path d="M16.27,70.5c1.37-1,2.87-1.92,4.32-2.78a15,15,0,0,0,1.94-1.36,11.28,11.28,0,0,0,1.53-1.56L26.84,69a16.08,16.08,0,0,1-2.8.83,19.29,19.29,0,0,1-2.72.32C19.61,70.18,18,70.27,16.27,70.5Z"/></g></g></svg>