<svg xmlns="http://www.w3.org/2000/svg" viewBox="0 0 46.92 144.26"><defs><style>.cls-1{fill:#616161;stroke:#000;stroke-linecap:round;stroke-linejoin:round;}</style></defs><g id="Layer_2" data-name="Layer 2"><g id="Layer_1-2" data-name="Layer 1"><path class="cls-1" d="M9.5,143.76c7-20.39,40-34,36.68-58.63-2-15.21-5.85-49.06-5.62-57.55.17-6.37,3.94-22.06-4.06-22.06-.12-3.71-6-7.94-8.29-2.14C26.5-1.28,20.5-.15,19.32,5.82c-4.82.83-4.82,6.49-4.14,10.75-1.68,5.94,2,9.85,4.25,15.38,6.33,15.51,3.36,42.63,3.18,49.43S11.29,101.16.5,104.1"/><path class="cls-1" d="M36.5,5.52c1,4.53-1,7.93-1,10.19"/><path class="cls-1" d="M28.5,3.25v7.93"/><path class="cls-1" d="M20.5,14.58a30.79,30.79,0,0,1-1-9.06"/><path class="cls-1" d="M15.5,16.85c1,4.53,3,5.66,4,10.2"/></g></g></svg>