<svg xmlns="http://www.w3.org/2000/svg" viewBox="0 0 536 339.35"><defs><style>.cls-1{fill:#b3b3b3;}.cls-2,.cls-3,.cls-4{fill:#736357;}.cls-3,.cls-4,.cls-5,.cls-6,.cls-8{stroke:#000;stroke-linecap:round;stroke-linejoin:round;}.cls-3{stroke-width:3.17px;}.cls-4{stroke-width:1.5px;}.cls-5{fill:#009245;}.cls-7{fill:#fff;}.cls-8{fill:none;stroke-width:2px;}</style></defs><g id="Layer_2" data-name="Layer 2"><g id="Layer_5" data-name="Layer 5"><path class="cls-1" d="M147.9,86.5C122.31,58.61,98.55,27.15,69.33,15c-12.65,6.52,15.73,101.78,31.05,122.17"/><path d="M147.54,86.84C135.46,73.68,124,60,111.57,47.2a202,202,0,0,0-19.72-18A100.33,100.33,0,0,0,69.14,15.46l.42,0h0a5,5,0,0,0-1.94,3A17.3,17.3,0,0,0,67,22.23a50.23,50.23,0,0,0,.21,7.94A149.41,149.41,0,0,0,69.63,46q3.24,15.74,7.84,31.18c3,10.3,6.3,20.52,10,30.57,1.84,5,3.78,10,5.93,14.94,1.06,2.46,2.16,4.9,3.36,7.28a54.9,54.9,0,0,0,4,6.9.49.49,0,0,1-.12.69.5.5,0,0,1-.64-.06l0,0c-1-1-1.86-2-2.74-3.11s-1.65-2.21-2.42-3.34c-1.54-2.28-2.95-4.63-4.3-7s-2.58-4.81-3.8-7.25-2.29-4.94-3.4-7.43-2.09-5-3.09-7.54-2-5.06-2.86-7.63S75.63,89,74.8,86.44s-1.65-5.17-2.37-7.79a235.75,235.75,0,0,1-7-31.86,114.78,114.78,0,0,1-1.27-16.41A48.06,48.06,0,0,1,64.9,22a18.4,18.4,0,0,1,1.2-4.14,6.19,6.19,0,0,1,3-3.34h0a.43.43,0,0,1,.38,0l0,0a101.43,101.43,0,0,1,23,13.89A201.84,201.84,0,0,1,112.28,46.5c12.49,12.8,23.94,26.52,36,39.66a.5.5,0,0,1,0,.71.5.5,0,0,1-.7,0Z"/><path class="cls-1" d="M341.5,66.86c21-25,42.52-53,69.52-66.11,13.5,3.58-1.27,89.34-13.27,107.21"/><path d="M341.12,66.54C351.47,54.21,361.57,41.62,372.73,30a189.43,189.43,0,0,1,17.74-16.48A108.39,108.39,0,0,1,410.8.3h0a.37.37,0,0,1,.31,0h0a5.42,5.42,0,0,1,3.14,2.26A14.39,14.39,0,0,1,416,5.86a36.25,36.25,0,0,1,1.6,7A93.26,93.26,0,0,1,418.22,27a203.08,203.08,0,0,1-2.69,28,225.39,225.39,0,0,1-6.09,27.41q-1,3.38-2.11,6.72c-.77,2.22-1.58,4.42-2.45,6.61s-1.85,4.34-2.93,6.44a35,35,0,0,1-3.78,6,.51.51,0,0,1-.71.08.5.5,0,0,1-.13-.62h0a46.08,46.08,0,0,0,2.62-6.33c.75-2.17,1.42-4.37,2-6.58s1.21-4.44,1.75-6.68,1.1-4.47,1.59-6.72q1.51-6.75,2.83-13.54c.92-4.52,1.67-9.07,2.46-13.61,1.52-9.1,2.78-18.24,3.58-27.39a123.26,123.26,0,0,0,.49-13.7,38,38,0,0,0-.71-6.7,12.52,12.52,0,0,0-1-3.08,4.1,4.1,0,0,0-2.06-2.12h0l.34,0a108.46,108.46,0,0,0-20.14,13.05,188.48,188.48,0,0,0-17.63,16.4c-11.13,11.62-21.22,24.19-31.58,36.53a.49.49,0,0,1-.7.07.51.51,0,0,1-.06-.71Z"/><path class="cls-2" d="M400.94,75.75c-3.05.09-8,.17-10.54,1.24,2.63-6.09,5.79-11.89,5.53-18.21a33.61,33.61,0,0,1-12.82,6.79A32.92,32.92,0,0,0,389.4,54a51.89,51.89,0,0,1-23.84,4.13,159.77,159.77,0,0,0,36.66-17.87c-12.15,2.8-32,5.79-43.64,9.33,7.49-5.23,23.89-9.67,33.18-13.55L373,37.88l32.35-14.5-18.72,2.38s17.17-22,24.36-25C391.36,8.45,352.7,31.1,335.19,45,311.44,35.81,291.5,27.6,253.75,27.6c-57.25,0-77.14,15.12-99.05,30.6C135,43.66,90.49,21.62,69.33,15,77,17.63,99.4,41.68,99.4,41.68l-19-.08,34.77,13.06-18.86.59c9.93,3.4,27,6.4,35.41,11.75-12.21-2.6-32.38-3.27-44.93-4.9a148.68,148.68,0,0,0,39.69,16.6,42.54,42.54,0,0,1-24.35-1.47,45.52,45.52,0,0,0,8.45,13.43,32.28,32.28,0,0,1-14-6.48c1,7.91,5.22,14.63,9,21.81-2.72-.95-7.63-.28-10.65.08a149,149,0,0,1,5.28,25.27C98.5,142,98,148,98.5,158c3,54,34.31,113.57,92.25,130.12,21,6,40.52-6,63-6,25.69,0,49.09,15.1,70.5,4.5,51-25.24,86.74-89,86.74-138,0-16.72-4.1-43.94-11.48-55.53A90.71,90.71,0,0,1,400.94,75.75Z"/><path d="M400.36,76.23a.32.32,0,0,0,0,.23.06.06,0,0,0,0,.05s0,0-.07,0l-.66,0-1.33,0c-.88,0-1.75.08-2.62.16s-1.74.16-2.58.31a11.36,11.36,0,0,0-2.41.63h0a.74.74,0,0,1-1-.41.78.78,0,0,1,0-.58c1.28-3,2.68-5.83,3.76-8.79a23.51,23.51,0,0,0,1.71-9.09l1.25.53a34.6,34.6,0,0,1-13.11,7,.75.75,0,0,1-.93-.5.79.79,0,0,1,.14-.7,32.21,32.21,0,0,0,6.15-11.3l1,.89a47.48,47.48,0,0,1-11.86,3.53,56.56,56.56,0,0,1-12.33.67.77.77,0,0,1-.71-.8.75.75,0,0,1,.51-.66A159.7,159.7,0,0,0,401.8,39.63l.59,1.36c-7.29,1.65-14.62,2.95-21.91,4.37-3.65.71-7.3,1.44-10.92,2.24s-7.23,1.65-10.76,2.71h0a.75.75,0,0,1-.93-.5.77.77,0,0,1,.3-.84,49.32,49.32,0,0,1,8.07-4.23c2.78-1.19,5.59-2.25,8.41-3.27,5.64-2.06,11.35-3.88,16.84-6.13l.37,1.44L373.1,38.63a.76.76,0,0,1-.82-.68.77.77,0,0,1,.44-.76L405.07,22.7l.4,1.42-18.72,2.39a.76.76,0,0,1-.84-.65.75.75,0,0,1,.16-.56c3.64-4.61,7.4-9.09,11.34-13.45,2-2.17,4-4.31,6.13-6.35,1.09-1,2.17-2,3.34-2.94a19,19,0,0,1,3.85-2.5l.56,1.39c-6.76,2.71-13.33,6-19.81,9.33s-12.88,7-19.2,10.65S359.73,29,353.6,32.94s-12.18,8.12-17.92,12.61l0,0a.74.74,0,0,1-.65.14l-.09,0c-7.65-2.13-15.17-4.61-22.74-6.65-3.77-1-7.55-2-11.36-2.81s-7.61-1.57-11.43-2.19c-15.31-2.42-30.88-2.77-46.49-2.27l-5.83.27-2.92.14-2.9.26-5.8.51-5.76.68c-1.93.19-3.83.56-5.73.87L211.1,35c-1,.15-1.89.4-2.83.59l-2.83.61c-.94.18-1.89.39-2.81.65-1.86.5-3.74.93-5.58,1.5A120.64,120.64,0,0,0,175.6,47c-6.93,3.54-13.6,7.76-20.44,11.79h0l0,0a.76.76,0,0,1-.83,0A226.67,226.67,0,0,0,134.09,46Q123.7,40.06,113,34.68c-7.13-3.58-14.34-7-21.64-10.25a238.28,238.28,0,0,0-22.24-8.72l.46-1.42a21.78,21.78,0,0,1,4.55,2.62c1.41,1,2.71,2.06,4,3.13,2.61,2.17,5.08,4.46,7.55,6.77Q93,33.79,100,41.17a.75.75,0,0,1,0,1.06.81.81,0,0,1-.52.2l-19-.08.27-1.46L115.48,54a.75.75,0,0,1-.24,1.46L96.37,56l.22-1.46c2.92,1,5.92,1.81,8.93,2.62s6,1.59,9,2.44,6,1.74,9,2.8a45.49,45.49,0,0,1,8.64,4,.75.75,0,0,1-.55,1.37h0C128,67,124.24,66.46,120.51,66s-7.48-.78-11.23-1.1c-7.5-.66-15-1.15-22.54-2.08l.48-1.39A148.36,148.36,0,0,0,126.7,78a.75.75,0,0,1,.54.92.73.73,0,0,1-.56.54,44.82,44.82,0,0,1-12.49,1.06,40.47,40.47,0,0,1-12.29-2.56l1-1a45.08,45.08,0,0,0,8.31,13.21.73.73,0,0,1,0,1,.72.72,0,0,1-.65.18,33,33,0,0,1-14.31-6.63l1.22-.67a36.85,36.85,0,0,0,3.43,11.07c1.66,3.54,3.63,7,5.48,10.48a.75.75,0,0,1-.31,1,.76.76,0,0,1-.59,0h0a9.43,9.43,0,0,0-2.43-.41,25.05,25.05,0,0,0-2.6,0c-1.75.09-3.51.31-5.29.52l.63-1a115.33,115.33,0,0,1,3.2,12.58c.87,4.24,1.6,8.49,2.11,12.8v0a.54.54,0,0,1,0,.18v0a124.45,124.45,0,0,0-1.66,17.27,133.65,133.65,0,0,0,1.12,17.3,170.46,170.46,0,0,0,3,17.08c1.32,5.63,3,11.17,4.79,16.64A158,158,0,0,0,122.78,231a134.06,134.06,0,0,0,21.37,26.83c1,1,2,2,3.14,2.92s2.12,1.91,3.23,2.8l3.32,2.71,3.43,2.55a115.31,115.31,0,0,0,14.57,8.9,110.37,110.37,0,0,0,15.77,6.46c1.35.41,2.72.85,4.07,1.24s2.64.66,4,.87a45.71,45.71,0,0,0,8.2.57c11.1-.2,22.18-3.93,33.88-6.15a85.66,85.66,0,0,1,18-1.71,104.48,104.48,0,0,1,17.87,2.29c5.81,1.19,11.47,2.64,17.09,3.82a79.59,79.59,0,0,0,16.66,2.07,34.4,34.4,0,0,0,15.52-3.49,134.57,134.57,0,0,0,14.7-8.63c18.86-12.85,34.43-30.39,46.51-49.87a180.36,180.36,0,0,0,15.19-30.86,144.18,144.18,0,0,0,8.39-33.25,105.93,105.93,0,0,0,.76-17.08,171.42,171.42,0,0,0-1.5-17.18,152.44,152.44,0,0,0-3.25-16.91c-.67-2.78-1.56-5.48-2.45-8.17s-2-5.24-3.1-7.77l0-.06-.18-.46a.94.94,0,0,1-.07-.4c.13-3,.38-5.88.74-8.8.19-1.45.4-2.91.65-4.36.12-.72.26-1.44.41-2.17l.24-1.08.06-.24s0,0,.07-.05A1,1,0,0,0,400.36,76.23Zm1.15-1a4.19,4.19,0,0,1,.09.91,3.58,3.58,0,0,1,0,.48l0,.3L401.39,78c-.08.71-.14,1.43-.19,2.14-.1,1.43-.16,2.87-.2,4.3-.06,2.87,0,5.75.14,8.6l-.25-.87,0,.06c.48.61.9,1.26,1.36,1.89a22.11,22.11,0,0,1,1.14,2,16.88,16.88,0,0,1,1,2c.31.69.6,1.39.88,2.09a88.87,88.87,0,0,1,2.65,8.56,157.4,157.4,0,0,1,3.4,17.41A172.82,172.82,0,0,1,413,143.86a110,110,0,0,1-.73,17.78A148.76,148.76,0,0,1,403.7,196a185.11,185.11,0,0,1-15.48,31.73A183.23,183.23,0,0,1,367,255.91a155.12,155.12,0,0,1-12.64,12.35,141.16,141.16,0,0,1-14,10.85,135.81,135.81,0,0,1-15.29,9,37.06,37.06,0,0,1-8.62,3,43.06,43.06,0,0,1-9,.93,84.28,84.28,0,0,1-17.67-2.22c-5.75-1.23-11.39-2.7-17.06-3.87a99.13,99.13,0,0,0-17-2.26,82,82,0,0,0-17.08,1.51c-5.68,1-11.32,2.45-17.06,3.67a89.75,89.75,0,0,1-17.6,2.28,49.93,49.93,0,0,1-8.95-.7c-1.48-.25-2.93-.67-4.4-1s-2.82-.88-4.22-1.32A114.27,114.27,0,0,1,170,281.26a117.26,117.26,0,0,1-28.42-20.8A136.62,136.62,0,0,1,120,232.67,154.13,154.13,0,0,1,112,217a156,156,0,0,1-6.32-16.41q-2.7-8.37-4.57-17a172.79,172.79,0,0,1-2.73-17.37,133.81,133.81,0,0,1-.81-17.57,124.37,124.37,0,0,1,2-17.48v.16c-.5-4.24-1.23-8.47-2.08-12.67a117.87,117.87,0,0,0-3.16-12.4h0a.76.76,0,0,1,.48-1l.15,0c1.77-.21,3.56-.44,5.38-.53a25.59,25.59,0,0,1,2.77,0,11,11,0,0,1,2.83.49l-.91,1.06c-1.83-3.49-3.81-6.93-5.51-10.55a38.32,38.32,0,0,1-3.56-11.51.75.75,0,0,1,.66-.84.74.74,0,0,1,.56.17,31.59,31.59,0,0,0,13.66,6.31l-.71,1.24a46.38,46.38,0,0,1-8.59-13.65.74.74,0,0,1,.42-1,.72.72,0,0,1,.54,0A39.33,39.33,0,0,0,114.27,79a43.4,43.4,0,0,0,12.08-1l0,1.45A149.92,149.92,0,0,1,86.44,62.74a.75.75,0,0,1-.25-1,.76.76,0,0,1,.74-.35c7.44.93,15,1.42,22.48,2.07,3.76.33,7.51.67,11.27,1.11s7.51.95,11.24,1.73l-.56,1.37A44.07,44.07,0,0,0,123,63.81c-2.91-1-5.89-1.93-8.88-2.77s-6-1.62-9-2.43-6-1.64-9-2.65a.75.75,0,0,1,.22-1.46l18.87-.59L115,55.36,80.18,42.3a.76.76,0,0,1-.44-1,.74.74,0,0,1,.71-.48l19,.08-.56,1.26c-4.59-4.89-9.32-9.67-14.18-14.29-2.45-2.29-4.91-4.57-7.48-6.71-1.29-1.05-2.58-2.12-3.94-3.06a20.52,20.52,0,0,0-4.16-2.42l-.06,0a.75.75,0,0,1-.4-1,.76.76,0,0,1,.92-.42A237.47,237.47,0,0,1,92,23.06c7.33,3.24,14.56,6.69,21.71,10.28s14.22,7.38,21.17,11.36a224.45,224.45,0,0,1,20.32,12.89h-.86A193.1,193.1,0,0,1,173.34,43.1a105.28,105.28,0,0,1,21.71-10.82c3.83-1.34,7.7-2.62,11.64-3.57,1-.24,2-.53,2.95-.73l3-.6c2-.4,4-.86,6-1.13l6-.93c2-.23,4-.41,6-.62l3-.3,3-.18,6-.35a236,236,0,0,1,24.08.22c4,.24,8,.7,12,1.22,2,.27,4,.62,6,.92s4,.76,5.94,1.18c3.93.91,7.85,1.89,11.7,3.07l2.87.91,2.85,1c1.91.63,3.77,1.37,5.64,2.07,7.45,2.95,14.66,6.27,21.76,9.82l-.73.11h0c5.8-4.55,11.88-8.68,18-12.69s12.41-7.85,18.75-11.56,12.75-7.28,19.25-10.68,13.11-6.65,20-9.4a.76.76,0,0,1,1,.42.75.75,0,0,1-.37,1l-.05,0a18.63,18.63,0,0,0-3.48,2.29c-1.12.89-2.18,1.87-3.24,2.86-2.09,2-4.09,4.12-6.06,6.26q-5.85,6.49-11.27,13.37l-.69-1.2,18.72-2.38a.74.74,0,0,1,.4,1.42l-32.34,14.5L373,37.13l18.73-1.84h0a.75.75,0,0,1,.35,1.44c-5.59,2.29-11.3,4.1-16.91,6.15-2.81,1-5.6,2.06-8.32,3.24A46.66,46.66,0,0,0,359,50.2l-.65-1.33c3.6-1.07,7.23-1.93,10.88-2.74s7.29-1.53,10.95-2.24c7.3-1.43,14.64-2.73,21.86-4.37a.75.75,0,0,1,.59,1.36,161.29,161.29,0,0,1-36.83,18l-.2-1.46a54.08,54.08,0,0,0,12-.65,46.23,46.23,0,0,0,11.49-3.41.75.75,0,0,1,1,.37.78.78,0,0,1,0,.52,34,34,0,0,1-6.43,11.84l-.79-1.2a33.19,33.19,0,0,0,12.53-6.63.76.76,0,0,1,1.06.06.78.78,0,0,1,.19.47,25.14,25.14,0,0,1-1.8,9.67c-1.12,3-2.53,6-3.79,8.87l-1-1a12.87,12.87,0,0,1,2.73-.73c.91-.15,1.81-.25,2.71-.33s1.8-.12,2.69-.16l1.34,0,.67,0h.26a2.2,2.2,0,0,1,.36,0A2.67,2.67,0,0,1,401.51,75.27Z"/><path class="cls-3" d="M257.49,218.18l-.36.73Z"/><path class="cls-3" d="M258.11,216.93c-.21.41-.42.83-.62,1.25C257.69,217.76,257.9,217.34,258.11,216.93Z"/><path class="cls-3" d="M257.13,218.91c-.19.41-.38.82-.56,1.24C256.75,219.73,256.94,219.32,257.13,218.91Z"/><path class="cls-3" d="M255.66,222.24l-.28.69Z"/><path class="cls-3" d="M258.55,216.11c-.15.27-.3.54-.44.82C258.25,216.65,258.4,216.38,258.55,216.11Z"/><path class="cls-3" d="M256.57,220.15c-.12.25-.24.5-.35.76C256.33,220.65,256.45,220.4,256.57,220.15Z"/><path class="cls-3" d="M256.22,220.91c-.19.44-.37.89-.56,1.33C255.85,221.8,256,221.35,256.22,220.91Z"/><path class="cls-3" d="M255.38,222.93c-.22.53-.42,1.07-.62,1.61C255,224,255.16,223.46,255.38,222.93Z"/><path class="cls-3" d="M261.46,211.13c-.2.3-.38.61-.57.91C261.08,211.74,261.26,211.43,261.46,211.13Z"/><path class="cls-3" d="M262.11,210.14c-.22.33-.44.65-.65,1C261.67,210.79,261.89,210.47,262.11,210.14Z"/><path class="cls-3" d="M262.71,209.25l-.6.89Z"/><path class="cls-3" d="M260.27,213l-.62,1.08Z"/><path class="cls-3" d="M259.65,214.11l-.49.86Z"/><path class="cls-3" d="M259.16,215c-.21.38-.41.76-.61,1.14C258.75,215.73,259,215.35,259.16,215Z"/><path class="cls-3" d="M260.89,212c-.21.33-.42.66-.62,1C260.47,212.7,260.68,212.37,260.89,212Z"/><path class="cls-3" d="M264,207.4c-.45.61-.89,1.23-1.32,1.85C263.14,208.63,263.58,208,264,207.4Z"/><path class="cls-3" d="M252.2,233l-.06.2Z"/><path class="cls-3" d="M251.69,235.24c-.28,1.38-.52,2.76-.71,4.13C251.17,238,251.41,236.62,251.69,235.24Z"/><path class="cls-3" d="M254.76,224.54l-.16.42Z"/><path class="cls-3" d="M252.14,233.18c-.14.63-.28,1.26-.41,1.88C251.86,234.44,252,233.81,252.14,233.18Z"/><path class="cls-3" d="M251,239.37Z"/><path class="cls-2" d="M251,239.37h0c.19-1.37.43-2.75.71-4.13,0-.06,0-.12,0-.18.13-.62.27-1.25.41-1.88l.06-.2c.14-.62.3-1.25.46-1.87,0-.08.05-.16.07-.24.16-.6.33-1.21.51-1.82l.1-.31c.18-.58.36-1.16.55-1.74,0-.13.09-.26.13-.38.19-.56.38-1.11.58-1.66l.16-.42c.2-.54.4-1.08.62-1.61l.28-.69c.19-.44.37-.89.56-1.33.11-.26.23-.51.35-.76.18-.42.37-.83.56-1.24l.36-.73c.2-.42.41-.84.62-1.25s.29-.55.44-.82.4-.76.61-1.14l.49-.86.62-1.08c.2-.33.41-.66.62-1s.37-.61.57-.91.43-.66.65-1l.6-.89c.43-.62.87-1.24,1.32-1.85-15.35-6.6-32.76-10.6-43.28-10.6a40.31,40.31,0,0,0-6.16,80.14c2,.31,22.15-4.76,24.16-5.34A43.52,43.52,0,0,1,254,269.8C250.52,261.08,249.41,250.35,251,239.37Z"/><path d="M249.45,239l1-4.15c.38-1.44.83-2.85,1.27-4.26.86-2.82,2-5.56,3.09-8.27s2.45-5.35,3.86-7.92q1-2,2.17-3.84l2.35-3.75.44,1.62a146.34,146.34,0,0,0-24.14-8.11A108.91,108.91,0,0,0,227,198a60.77,60.77,0,0,0-6.31-.42l-3.15.14-.79,0-.78.12-1.55.24a38.81,38.81,0,0,0-11.9,4,41.64,41.64,0,0,0-10,7.51,38.5,38.5,0,0,0-7.17,10.27,37.06,37.06,0,0,0-3.6,12c-.07.52-.19,1-.21,1.56l-.07,1.57a25.32,25.32,0,0,0-.06,3.14c.08,1,.08,2.1.22,3.13l.46,3.11a39.51,39.51,0,0,0,22.43,28.25,40.23,40.23,0,0,0,5.85,2.07,25.82,25.82,0,0,0,3,.67c.5.09,1,.21,1.5.28.15,0,.75-.07,1.21-.15,4.09-.72,8.28-1.78,12.41-2.79l6.2-1.58,3.08-.82c.48-.13,1-.3,1.53-.48s1-.32,1.57-.52c2.09-.74,4.21-1.63,6.44-2.67a44,44,0,0,0,7.09-4h0l-7.15,9.92c-.2-3.13-.39-6.06-.37-9,0-1.43,0-2.85.06-4.26s.09-2.78.22-4.16c.26-2.75.44-5.44.89-8.1.21-1.32.37-2.64.61-4l.38-2Zm3.06.82-.2,1.7-.19,1.87c-.1,1.25-.18,2.51-.22,3.76a65.18,65.18,0,0,0,.21,7.53,52.84,52.84,0,0,0,3.33,14.58,1.6,1.6,0,0,1-.9,2,1.49,1.49,0,0,1-.54.11h-.13c-2.08,0-4.13.2-6.16.43a56.29,56.29,0,0,0-6,1.14l-1.5.4c-.49.15-1,.29-1.55.44l-3.13.8-6.26,1.52c-4.21,1-8.32,2-12.73,2.72a9.61,9.61,0,0,1-2.17.13c-.62-.1-1.12-.21-1.69-.32a26.5,26.5,0,0,1-3.28-.78,43.59,43.59,0,0,1-6.33-2.31,42.53,42.53,0,0,1-23.86-30.71,43.59,43.59,0,0,1-.27-13.39,39.9,39.9,0,0,1,3.9-12.81,41.36,41.36,0,0,1,7.69-10.94,43.9,43.9,0,0,1,10.74-8A40.74,40.74,0,0,1,214,195.55l1.66-.25.83-.13.84,0,3.35-.15a65.31,65.31,0,0,1,6.6.42,112.28,112.28,0,0,1,12.83,2.34,149.85,149.85,0,0,1,24.6,8.21h0a1.22,1.22,0,0,1,1.22,1.22,1.25,1.25,0,0,1-.24.73l-.33.45A67.48,67.48,0,0,0,257,223.17a69.08,69.08,0,0,0-2.72,8.08q-.56,2.06-1,4.14Z"/><path class="cls-2" d="M291.25,196.8A40,40,0,0,0,264,207.4c-.45.61-.89,1.23-1.32,1.85l-.6.89c-.22.33-.44.65-.65,1s-.38.61-.57.91-.42.66-.62,1l-.62,1.08-.49.86c-.21.38-.41.76-.61,1.14s-.3.54-.44.82-.42.83-.62,1.25l-.36.73c-.19.41-.38.82-.56,1.24-.12.25-.24.5-.35.76-.19.44-.37.89-.56,1.33l-.28.69c-.22.53-.42,1.07-.62,1.61l-.16.42c-.2.55-.39,1.1-.58,1.66,0,.12-.09.25-.13.38-.19.58-.37,1.16-.55,1.74l-.1.31c-.18.61-.35,1.22-.51,1.82,0,.08,0,.16-.07.24-.16.62-.32,1.25-.46,1.87l-.06.2c-.14.63-.28,1.26-.41,1.88,0,.06,0,.12,0,.18-.28,1.38-.52,2.76-.71,4.13h0c-1.57,11-.46,21.71,3,30.43a102.19,102.19,0,0,1,19.43,3.43,40.3,40.3,0,1,0,17.86-76.43Z"/><path d="M291.25,198.52a38.32,38.32,0,0,0-26.1,10.1l.21-.23A67.74,67.74,0,0,0,257,223.18a71.61,71.61,0,0,0-2.74,8.07q-.56,2.06-1,4.14l-.75,4.2,0,.14-.12.34h0l.15-.48a64.8,64.8,0,0,0-.44,15,53.15,53.15,0,0,0,3.34,14.57h0l-1.39-1a69.23,69.23,0,0,1,10.09.82c3.31.51,6.59,1.18,9.83,1.93a1.91,1.91,0,0,1,.36.13l.1,0a38.89,38.89,0,0,0,32.94.12,38.22,38.22,0,0,0,13.32-10.37,38.65,38.65,0,0,0,7.54-15.15,37.78,37.78,0,0,0,.24-17,38.27,38.27,0,0,0-37.22-30.23Zm0-3.45a42.44,42.44,0,0,1,33.1,15.77,42.93,42.93,0,0,1,8.3,17,41.77,41.77,0,0,1,.06,19A43.26,43.26,0,0,1,324.49,264a42.27,42.27,0,0,1-43.16,14.77,41.34,41.34,0,0,1-9-3.4l.45.17c-3.14-.87-6.28-1.71-9.44-2.42a88.19,88.19,0,0,0-9.49-1.7l-.19,0a1.44,1.44,0,0,1-1.2-1h0a55.77,55.77,0,0,1-3.5-15.45,70.47,70.47,0,0,1,.45-15.77.29.29,0,0,1,0-.09l.13-.39h0l-.15.48.75-4.39c.31-1.46.64-2.91,1-4.34A72.18,72.18,0,0,1,254,222a71,71,0,0,1,8.68-15.55,2,2,0,0,1,.19-.22h0a41.76,41.76,0,0,1,28.33-11.12Z"/><path class="cls-3" d="M251,239.37c-1.57,11-.46,21.71,3,30.43h0C250.52,261.08,249.41,250.35,251,239.37Z"/><path class="cls-3" d="M251.73,235.06c0,.06,0,.12,0,.18S251.72,235.12,251.73,235.06Z"/><path class="cls-3" d="M254,226.62c0,.12-.09.25-.13.38C253.93,226.87,254,226.74,254,226.62Z"/><path class="cls-3" d="M253.89,227c-.19.58-.37,1.16-.55,1.74C253.52,228.16,253.7,227.58,253.89,227Z"/><path class="cls-3" d="M252.66,231.11c-.16.62-.32,1.25-.46,1.87C252.34,232.36,252.5,231.73,252.66,231.11Z"/><path class="cls-3" d="M254.6,225c-.2.55-.39,1.1-.58,1.66C254.21,226.06,254.4,225.51,254.6,225Z"/><path class="cls-3" d="M252.73,230.87c0,.08,0,.16-.07.24C252.68,231,252.71,231,252.73,230.87Z"/><path class="cls-3" d="M253.34,228.74l-.1.31Z"/><path class="cls-3" d="M253.24,229.05c-.18.61-.35,1.22-.51,1.82C252.89,230.27,253.06,229.66,253.24,229.05Z"/><path class="cls-1" d="M211.75,196.6c-3,9,39,40.5,39,40.5s49.5-34.5,40.5-40.5S214.75,187.6,211.75,196.6Z"/><path d="M212.22,196.76a4.84,4.84,0,0,0,.43,3.14,17.86,17.86,0,0,0,1.69,3,50.72,50.72,0,0,0,4.43,5.54c3.19,3.52,6.65,6.82,10.18,10s7.17,6.29,10.86,9.32,7.44,6,11.24,8.88h-.59c9.58-6.8,19-13.89,27.84-21.6,2.2-1.94,4.36-3.93,6.42-6a44.79,44.79,0,0,0,5.62-6.65,8,8,0,0,0,1.5-3.79,1.81,1.81,0,0,0-.73-1.52,8,8,0,0,0-1.82-.94,48,48,0,0,0-8.46-2.08c-5.78-1-11.63-1.56-17.49-2s-11.73-.65-17.6-.69-11.75.09-17.59.6a76.31,76.31,0,0,0-8.67,1.22,26.46,26.46,0,0,0-4.16,1.19,9.09,9.09,0,0,0-1.87.94A3.15,3.15,0,0,0,212.22,196.76Zm-.94-.32a4,4,0,0,1,1.64-1.84,10.32,10.32,0,0,1,2.07-1,27.59,27.59,0,0,1,4.33-1.13c2.91-.51,5.84-.87,8.78-1.1s5.87-.41,8.81-.53c1.48-.06,3-.1,4.42-.14l4.42-.12a264.38,264.38,0,0,1,35.42,1.51,49.59,49.59,0,0,1,9,1.83c.39.14.78.28,1.19.47.2.1.4.18.62.31a4.26,4.26,0,0,1,.69.44A4.31,4.31,0,0,1,294,196.7a4.69,4.69,0,0,1,.46,1.93,7.93,7.93,0,0,1-.59,3,15.61,15.61,0,0,1-1.12,2.32,48.39,48.39,0,0,1-5.64,7.47c-2,2.27-4.12,4.43-6.26,6.53s-4.32,4.15-6.53,6.16-4.39,4.05-6.62,6c-4.46,4-9,7.81-13.58,11.74l-.37.31a4.68,4.68,0,0,1-6.51-.43c-3.36-3.74-6.71-7.2-10-10.77-1.69-1.75-3.37-3.5-5-5.27l-5-5.28c-3.25-3.6-6.6-7.09-9.6-10.91a58.7,58.7,0,0,1-4.3-5.91,19.24,19.24,0,0,1-1.68-3.33A5.78,5.78,0,0,1,211.28,196.44Z"/><line class="cls-4" x1="228.25" y1="157.6" x2="211.75" y2="195.1"/><line class="cls-4" x1="279.25" y1="156.1" x2="291.25" y2="196.6"/><path class="cls-4" d="M282.25,163.6c16.5-39,40.5-42,63-9C324.25,187.6,297.25,192.1,282.25,163.6Z"/><path class="cls-4" d="M282.25,163.6c16.5-39,40.5-42,63-9C324.25,187.6,297.25,192.1,282.25,163.6Z"/><path class="cls-5" d="M282.25,163.6c16.5-39,40.5-42,63-9C324.25,187.6,297.25,192.1,282.25,163.6Z"/><path class="cls-6" d="M311.3,135.14c-15.55,22.46-11.74,29.48,2.85,44.72C328.75,156.1,321.25,148.6,311.3,135.14Z"/><path class="cls-5" d="M223.75,160.6c-16.5-39-40.5-42-63-9C181.75,184.6,208.75,189.1,223.75,160.6Z"/><path class="cls-6" d="M194.7,132.14c15.55,22.46,11.74,29.48-2.85,44.72C177.25,153.1,184.75,145.6,194.7,132.14Z"/><circle class="cls-7" cx="178.75" cy="144.1" r="6"/><ellipse class="cls-7" cx="239.34" cy="194.35" rx="16.34" ry="6"/><circle class="cls-7" cx="301" cy="150.85" r="6"/><path class="cls-2" d="M348.5,70c21-25,54-53,62.52-69.23C365.27,8.5,323,21.06,300.5,33c7.5,2.38,14,5,21,11"/><path d="M347.93,69.49a219.17,219.17,0,0,1,15.06-18c5.29-5.74,10.74-11.33,16.23-16.84s11-11,16.36-16.58l4-4.23c1.28-1.43,2.59-2.86,3.85-4.31A74.85,74.85,0,0,0,410.35.4h0l.79,1.09C392.22,4.93,373.45,9.15,355,14.41c-9.22,2.65-18.38,5.54-27.38,8.82a208.14,208.14,0,0,0-26.22,11.41h0l-.31-3.45a75.06,75.06,0,0,1,11.13,5A50.37,50.37,0,0,1,322,43.41a.75.75,0,0,1,0,1.06.77.77,0,0,1-1,.08,48.24,48.24,0,0,0-10-6,71.8,71.8,0,0,0-11.08-3.74,1.85,1.85,0,0,1-.35-3.44h0a212,212,0,0,1,26.92-11.09c9.15-3.13,18.42-5.87,27.75-8.34C373,7,391.86,3.08,410.89,0a.75.75,0,0,1,.86.62.75.75,0,0,1-.07.47h0L410.3,3.75c-.43.9-1,1.68-1.54,2.53-1,1.7-2.22,3.27-3.37,4.87s-2.43,3.09-3.64,4.64-2.53,3-3.82,4.48c-5.16,5.89-10.59,11.49-16.05,17.05C371,48.44,359.83,59.24,349.07,70.46a.75.75,0,0,1-1.06,0A.76.76,0,0,1,347.93,69.49Z"/><path class="cls-2" d="M100.94,131c2-6.39,8.86-21.12,20.58-33.57"/><path d="M99.79,130.64a72.63,72.63,0,0,1,4-9.25c1.51-3,3.17-5.88,5-8.7A99.44,99.44,0,0,1,121,96.93a.75.75,0,0,1,1.06,0,.76.76,0,0,1,0,1h0q-3.3,3.64-6.24,7.59c-2,2.63-3.75,5.37-5.44,8.17s-3.24,5.69-4.65,8.64a70.94,70.94,0,0,0-3.65,9v0a1.21,1.21,0,1,1-2.3-.72Z"/><path class="cls-2" d="M136.5,89c-25.6-27.9-51-55-67.17-74C116,17.59,168,25.62,192.5,37c-5.47,3.88-16,8-23,14"/><path d="M136,89.48c-6.06-5.74-11.93-11.65-17.74-17.62q-4.36-4.47-8.66-9c-2.88-3-5.7-6.07-8.54-9.12q-8.51-9.15-16.65-18.65C79,28.73,73.65,22.27,68.76,15.48h0l0,0a.75.75,0,0,1,.16-1,.79.79,0,0,1,.48-.14c20.94,1,41.85,2.86,62.64,5.84,10.39,1.5,20.75,3.3,31,5.61s20.49,5.12,30.35,9.38h0a2,2,0,0,1,.31,3.59,59.61,59.61,0,0,1-6.16,3.3l-6.09,2.89A65.34,65.34,0,0,0,170,51.55h0a.75.75,0,0,1-1-1.14,68.08,68.08,0,0,1,11.08-8l5.79-3.49a59.19,59.19,0,0,0,5.41-3.62l.33,3.6h0c-9.29-4.25-19.32-7.22-29.39-9.75s-20.36-4.51-30.66-6.23c-20.61-3.4-41.42-5.72-62.28-7.14l.61-1.24h0c5.92,5.88,11.69,11.87,17.42,17.9s11.4,12.13,17,18.3c2.79,3.08,5.61,6.14,8.37,9.26s5.54,6.22,8.27,9.36c5.48,6.28,10.9,12.61,16.1,19.14a.75.75,0,0,1-1.1,1Z"/><path class="cls-2" d="M373.75,72.22c12,6,17.91,12.47,25.5,20.26"/><path d="M374.08,71.55a70.72,70.72,0,0,1,14.44,8.3,158.81,158.81,0,0,1,12.53,10.87,2.52,2.52,0,1,1-3.41,3.71l-.19-.2a154.38,154.38,0,0,0-11-11.88,68.59,68.59,0,0,0-13-9.45.75.75,0,0,1,.66-1.35Z"/><path class="cls-8" d="M18.25,271.6c69-28.5,150-46.5,190.5-48"/><path class="cls-8" d="M1,338.35c34.5-27,121.1-91.19,194.8-95.85"/><path class="cls-8" d="M218.5,254.35c-31.5,7.5-79.5,42-93,72"/><path class="cls-8" d="M289,221.35c64.5-1.5,172.5,15,234,36"/><path class="cls-8" d="M310,234.85c45,7.5,160.5,34.5,225,69"/><path class="cls-8" d="M287.5,249.85c66,6,123,39,150,69"/><circle cx="241.75" cy="252.1" r="2.25"/><circle cx="190.75" cy="232.6" r="2.25"/><circle cx="220.75" cy="265.6" r="2.25"/><circle cx="208.75" cy="246.1" r="2.25"/><circle cx="226.75" cy="234.1" r="2.25"/><circle cx="207.25" cy="213.1" r="2.25"/><circle cx="301.75" cy="208.6" r="2.25"/><circle cx="273.25" cy="235.6" r="2.25"/><circle cx="292.75" cy="232.6" r="2.25"/><circle cx="273.25" cy="253.6" r="2.25"/><circle cx="292.75" cy="264.1" r="2.25"/><circle cx="313.75" cy="246.1" r="2.25"/><path class="cls-2" d="M282.25,163.6c4.5-21,19.5-43.5,42-36,20.21,6.74,25.5,27,39,31.5-16.5,15-28.5,24-46.5,27C301.66,188.61,286.75,181.6,282.25,163.6Z"/><path class="cls-2" d="M223.75,160.6c-4.5-21-19.5-43.5-42-36-20.21,6.74-28.5,28.5-39,30,16.5,15,28.5,25.5,46.5,28.5C204.34,185.61,219.25,178.6,223.75,160.6Z"/><path d="M157.26,175.52a72.11,72.11,0,0,1,5.89-6.64q3.09-3.13,6.37-6a85.69,85.69,0,0,1,6.85-5.45c2.38-1.69,4.79-3.35,7.13-5.09l7.05-5.21,7.09-5.14c4.76-3.38,9.49-6.82,14.29-10.15a.24.24,0,0,1,.35.06.26.26,0,0,1,0,.33c-4.3,3.95-8.69,7.8-13,11.71l-6.58,5.79L186,155.41c-2.21,1.91-4.37,3.89-6.54,5.84a83.53,83.53,0,0,1-6.82,5.49c-2.36,1.71-4.8,3.33-7.29,4.89a74.93,74.93,0,0,1-7.78,4.29.26.26,0,0,1-.34-.13A.26.26,0,0,1,157.26,175.52Z"/><path d="M157.57,131.79c4.8,3.33,9.53,6.77,14.29,10.15l7.09,5.14,7.05,5.21c2.34,1.74,4.75,3.4,7.13,5.09a85.69,85.69,0,0,1,6.85,5.45q3.28,2.91,6.37,6a72.11,72.11,0,0,1,5.89,6.64.27.27,0,0,1,0,.37.29.29,0,0,1-.27,0,74.93,74.93,0,0,1-7.78-4.29c-2.49-1.56-4.93-3.18-7.29-4.89a83.53,83.53,0,0,1-6.82-5.49c-2.17-1.95-4.33-3.93-6.54-5.84l-6.62-5.73-6.58-5.79c-4.35-3.91-8.74-7.76-13-11.71a.25.25,0,0,1,0-.36A.25.25,0,0,1,157.57,131.79Z"/><path d="M293.76,175.52a72.11,72.11,0,0,1,5.89-6.64q3.09-3.13,6.37-6a85.69,85.69,0,0,1,6.85-5.45c2.38-1.69,4.79-3.35,7.13-5.09l7.05-5.21,7.09-5.14c4.76-3.38,9.49-6.82,14.29-10.15a.24.24,0,0,1,.35.06.26.26,0,0,1,0,.33c-4.3,3.95-8.69,7.8-13,11.71l-6.58,5.79-6.62,5.73c-2.21,1.91-4.37,3.89-6.54,5.84a83.53,83.53,0,0,1-6.82,5.49c-2.36,1.71-4.8,3.33-7.29,4.89a74.93,74.93,0,0,1-7.78,4.29.26.26,0,0,1-.34-.13A.26.26,0,0,1,293.76,175.52Z"/><path d="M294.07,131.79c4.8,3.33,9.53,6.77,14.29,10.15l7.09,5.14,7.05,5.21c2.34,1.74,4.75,3.4,7.13,5.09a85.69,85.69,0,0,1,6.85,5.45q3.28,2.91,6.37,6a72.11,72.11,0,0,1,5.89,6.64.27.27,0,0,1,0,.37.29.29,0,0,1-.27,0,74.93,74.93,0,0,1-7.78-4.29c-2.49-1.56-4.93-3.18-7.29-4.89a83.53,83.53,0,0,1-6.82-5.49c-2.17-1.95-4.33-3.93-6.54-5.84l-6.62-5.73-6.58-5.79c-4.35-3.91-8.74-7.76-13-11.71a.25.25,0,0,1,0-.36A.25.25,0,0,1,294.07,131.79Z"/></g><g id="body"><path d="M176.32,114.64l1.15-2.26a17.28,17.28,0,0,0,1.05-2.27l.91-2.33.45-1.16.37-1.19c1-3.16,1.84-6.38,2.57-9.6a178.69,178.69,0,0,0,3-19.61c.68-6.56,1.1-13.14,1.21-19.63V51.75c-.05-1.58-.07-3.18-.15-4.72l-.16-2.29-.09-1.12-.14-1-.13-1-.07-.51,0-.26-.06-.2c-.15-.51-.28-1-.4-1.51l23.93-1.84c-.08,1.17-.17,2.34-.28,3.5l0,.44-.06.37-.13.74L209,43.74l-.26,1.47-.31,1.37-.64,2.72c-.45,1.79-1,3.51-1.42,5.25l-1.57,5.09c-2.18,6.71-4.64,13.22-7.34,19.62A185.4,185.4,0,0,1,188.42,98c-1.72,3-3.5,6-5.49,8.8l-.73,1.06-.8,1-1.6,2a18.3,18.3,0,0,1-1.72,1.92Z"/><path d="M239.82,153.14a32.48,32.48,0,0,1-4.82-4,55.27,55.27,0,0,1-4-4.33,65.83,65.83,0,0,1-6.35-9.21A83.18,83.18,0,0,1,213.94,94.8a67.23,67.23,0,0,1,1-11.09A57.66,57.66,0,0,1,216.2,78a36.09,36.09,0,0,1,2.12-5.86,43.23,43.23,0,0,1,4.4,4.36c1.34,1.48,2.52,3,3.67,4.5a74.42,74.42,0,0,1,5.9,9.28,88,88,0,0,1,7.59,19.54,89.13,89.13,0,0,1,2.91,20.72,76.57,76.57,0,0,1-.54,10.93c-.24,1.87-.51,3.76-.91,5.69A51,51,0,0,1,239.82,153.14Z"/><path d="M329.82,122.14c-3.91-6.29-7.37-12.89-10.74-19.52s-6.55-13.38-9.62-20.19-6-13.71-8.77-20.81l-2-5.4-1.88-5.58-.85-3-.43-1.49c-.14-.49-.25-1.07-.37-1.61-.23-1.12-.48-2.16-.69-3.36-.16-1.41-.28-2.85-.37-4.29L318,38.78a10.61,10.61,0,0,1-.34,1.21c-.08.62-.11,1.4-.17,2.1,0,.38-.07.7-.07,1.12v1.23l0,2.47.27,5.2.44,5.31c.7,7.13,1.67,14.36,2.77,21.58s2.36,14.46,3.79,21.66S327.74,115.05,329.82,122.14Z"/><path d="M265.57,149.86a50.61,50.61,0,0,1-1.53-6c-.39-1.93-.67-3.81-.91-5.68a79.68,79.68,0,0,1-.54-10.93,89.6,89.6,0,0,1,2.92-20.72A87.42,87.42,0,0,1,273.1,87a74,74,0,0,1,5.9-9.28c1.15-1.51,2.33-3,3.66-4.49a43.43,43.43,0,0,1,4.41-4.37,36.71,36.71,0,0,1,2.11,5.86,56.14,56.14,0,0,1,1.29,5.71,67.26,67.26,0,0,1,1,11.09,83,83,0,0,1-10.73,40.83,65.83,65.83,0,0,1-6.35,9.21,50.25,50.25,0,0,1-4,4.33A32.9,32.9,0,0,1,265.57,149.86Z"/><path d="M148.82,151.14a30.26,30.26,0,0,0-12.52,1.45,55,55,0,0,0-11.17,5.4c-3.6,2.17-7.15,4.6-11.12,6.93-1,.6-2,1.16-3.09,1.72s-2.21,1.08-3.36,1.6l-.87.39-.94.34-1.91.66c-1.29.42-2.75.68-4.15,1l-.74-16c2.76.52,6.57.07,10.56-.85s8.24-2.18,12.63-3.23a60.84,60.84,0,0,1,13.55-1.93A32.24,32.24,0,0,1,148.82,151.14Z"/><path d="M184.32,204.64A74.78,74.78,0,0,0,167,208.79a107.88,107.88,0,0,0-15.87,7.47c-5.11,2.88-10,6.07-15.06,9.34s-10.07,6.64-15.51,9.83L114,220.84c10.92-3.47,22.21-8.41,34-11.94a113.26,113.26,0,0,1,18-4A76.7,76.7,0,0,1,184.32,204.64Z"/><path d="M175.82,196.14a43.2,43.2,0,0,1-10.55,1.26,69.28,69.28,0,0,1-10.22-.78,87.33,87.33,0,0,1-19.24-5.37,97.34,97.34,0,0,1-17.51-9.17,88.09,88.09,0,0,1-8-6c-1.29-1.12-2.57-2.25-3.81-3.48a41.74,41.74,0,0,1-3.63-3.94,52,52,0,0,1,10.54.19,88.12,88.12,0,0,1,9.9,1.68,121.85,121.85,0,0,1,18.52,5.89,148.1,148.1,0,0,1,17.32,8.34c1.41.79,2.82,1.59,4.2,2.49s2.79,1.73,4.18,2.66,2.78,1.87,4.17,2.93A46.94,46.94,0,0,1,175.82,196.14Z"/><path d="M360.82,142.64A34.36,34.36,0,0,1,374.07,140a64.93,64.93,0,0,1,13.73,1.56c4.47.9,8.81,2,12.93,2.86s8,1.25,11,.74l-.74,16a46.65,46.65,0,0,1-14.38-5.47c-4.07-2.22-7.75-4.53-11.49-6.59A59.25,59.25,0,0,0,373.54,144,32.34,32.34,0,0,0,360.82,142.64Z"/><path d="M325.32,196.14a104.41,104.41,0,0,1,36.62,2.9,145,145,0,0,1,35,14.06l-9.23,13.07a133.25,133.25,0,0,0-28.52-19.62A100.49,100.49,0,0,0,325.32,196.14Z"/><path d="M351.82,187.64a33.78,33.78,0,0,1,3.14-3.1c1-.94,2-1.87,3.05-2.71,2-1.72,3.95-3.31,5.88-4.82a134.59,134.59,0,0,1,11.9-8.41,66.25,66.25,0,0,1,14.06-6.83c1.31-.43,2.63-.81,4-1.13s2.77-.54,4.18-.73a38.82,38.82,0,0,1,4.32-.23,25.61,25.61,0,0,1,4.48.46,36.37,36.37,0,0,1-2.59,3.58c-.86,1.13-1.73,2.18-2.61,3.17s-1.73,2-2.62,2.93-1.77,1.89-2.68,2.75a69.75,69.75,0,0,1-12.09,9.62A47.59,47.59,0,0,1,369,188.48a35.55,35.55,0,0,1-8.51.77A27.62,27.62,0,0,1,351.82,187.64Z"/><path d="M255.82,97.94C252.93,87,250.25,76,247.68,65q-1.92-8.26-3.76-16.57c-1.23-5.55-2.43-11.05-3.6-16.67l24-.67c-.84,5.47-1.63,11.06-2.41,16.6s-1.52,11.13-2.23,16.7C258.23,75.55,256.92,86.72,255.82,97.94Z"/></g></g></svg>