<svg xmlns="http://www.w3.org/2000/svg" viewBox="0 0 156.65 108.75"><defs><style>.cls-1,.cls-8{fill:#fff;}.cls-1,.cls-3,.cls-4,.cls-5,.cls-6,.cls-7,.cls-9{stroke:#000;stroke-linecap:round;}.cls-1,.cls-3,.cls-4,.cls-5,.cls-6,.cls-7{stroke-linejoin:round;}.cls-2{fill:#ffcade;}.cls-10,.cls-4,.cls-6,.cls-7,.cls-9{fill:none;}.cls-4{stroke-width:2px;}.cls-5{fill:#ff7bac;}.cls-6{stroke-width:0.5px;}.cls-9{stroke-miterlimit:10;}</style></defs><g id="Layer_2" data-name="Layer 2"><g id="Layer_1-2" data-name="Layer 1"><path class="cls-1" d="M148.14,56.23C146.13,67.3,80.64,95,79.39,60,78,21.18,150.64,42.48,148.14,56.23Z"/><path class="cls-2" d="M130.58,61.25c-7.22-1-13.46,9.84-6.08,16.15s10.44-3.24,6.76-10.54c-1.25,1.25-4.37,3.12-4.37.62S127.51,63.11,130.58,61.25Z"/><path class="cls-3" d="M136.89,66.23c3.75,1.25,7.5-1.25,7.17-4.3C139.39,62.48,138.7,63.59,136.89,66.23Z"/><path class="cls-2" d="M130.64,43.73c2.36-7.82-1.59-15.69-7.77-8.2s1.83,17.08,8.77,14.86C125.64,47.48,123.14,38.73,130.64,43.73Z"/><path class="cls-3" d="M138.14,46.23c3.19-2.64,6.25,0,5.92,3.06C141.89,50,138.14,47.48,138.14,46.23Z"/><path class="cls-4" d="M79.59,60c-16.23,6.16-26.69-.68-42.12-5.76C21.85,49.11,12.81,57.74,3.56,67.6"/><path class="cls-5" d="M150.69,55.56c.31,1.38-3.18,2.55-3.18,0S150.12,53,150.69,55.56Z"/><path class="cls-6" d="M145,58.11c1.25,3.75,4.38,10.62,10.63,19.37"/><path class="cls-6" d="M154.39,67.48c-3.75-3.75-8.13-8.12-8.13-9.37"/><path class="cls-6" d="M148.14,76.23c-1.42-3.69-1.87-13.68-3.88-16.72"/><path class="cls-7" d="M131.89,67.48c3.67,7.3,0,16.23-7.39,9.92s-1.14-17.14,6.08-16.15"/><path class="cls-7" d="M130.64,43.73c2.36-7.82-1.59-15.69-7.77-8.2s1.83,17.08,8.77,14.86"/><circle class="cls-8" cx="140.64" cy="64.98" r="0.63"/><circle class="cls-8" cx="140.64" cy="47.48" r="0.63"/><path class="cls-8" d="M135,53.11h0Z"/><path class="cls-9" d="M121.7,73.62c-1.69-4.26-2.31-8.64.19-12.39"/><path class="cls-7" d="M120.71,40c-2.57,5-1.32,10,2.43,11.27"/><path class="cls-6" d="M145.77,52.8c1.25-3.75,4.38-10.63,10.63-19.38"/><path class="cls-6" d="M155.15,43.42C151.4,47.17,147,51.55,147,52.8"/><path class="cls-6" d="M148.9,34.67C147.48,38.36,147,48.35,145,51.39"/><rect class="cls-10" width="155.66" height="108.75"/></g></g></svg>