<svg xmlns="http://www.w3.org/2000/svg" viewBox="0 0 155.91 108.75"><defs><style>.cls-1,.cls-8{fill:#fff;}.cls-1,.cls-3,.cls-4,.cls-5,.cls-6,.cls-7,.cls-9{stroke:#000;}.cls-1,.cls-3,.cls-5,.cls-6,.cls-7,.cls-9{stroke-linecap:round;}.cls-1,.cls-3,.cls-5,.cls-6,.cls-7{stroke-linejoin:round;}.cls-2{fill:#ffcade;}.cls-10,.cls-4,.cls-6,.cls-7,.cls-9{fill:none;}.cls-4,.cls-9{stroke-miterlimit:10;}.cls-4{stroke-width:2px;}.cls-5{fill:#ff7bac;}.cls-6{stroke-width:0.5px;}</style></defs><g id="Layer_2" data-name="Layer 2"><g id="Layer_1-2" data-name="Layer 1"><path class="cls-1" d="M147.4,58.54c-2,11.07-67.5,38.75-68.75,3.75C77.27,23.49,149.9,44.79,147.4,58.54Z"/><path class="cls-2" d="M129.84,63.56c-7.22-1-13.46,9.84-6.08,16.15s10.44-3.25,6.77-10.54c-1.25,1.25-4.38,3.12-4.38.62S126.78,65.42,129.84,63.56Z"/><path class="cls-3" d="M136.15,68.54c3.75,1.25,7.5-1.25,7.17-4.3C138.65,64.79,138,65.89,136.15,68.54Z"/><path class="cls-2" d="M129.9,46c2.36-7.82-1.58-15.69-7.77-8.2S124,54.92,130.9,52.7C124.9,49.79,122.4,41,129.9,46Z"/><path class="cls-3" d="M137.4,48.54c3.19-2.65,6.25,0,5.92,3.06C141.15,52.29,137.4,49.79,137.4,48.54Z"/><path class="cls-4" d="M78.18,61.93c-16.54-5.28-29.81-5.17-36.32-20-5.93-13.56,4.12-21.83,4-33"/><path class="cls-5" d="M150,57.87c.31,1.38-3.18,2.55-3.18.05S149.39,55.33,150,57.87Z"/><path class="cls-6" d="M144.28,60.42c1.25,3.75,4.37,10.62,10.62,19.37"/><path class="cls-6" d="M153.65,69.79c-3.75-3.75-8.12-8.12-8.12-9.37"/><path class="cls-6" d="M147.4,78.54c-1.41-3.69-1.86-13.68-3.88-16.72"/><path class="cls-7" d="M131.15,69.79c3.68,7.3,0,16.23-7.39,9.92s-1.14-17.14,6.08-16.15"/><path class="cls-7" d="M129.9,46c2.36-7.82-1.58-15.69-7.77-8.2S124,54.92,130.9,52.7"/><circle class="cls-8" cx="139.9" cy="67.29" r="0.63"/><circle class="cls-8" cx="139.9" cy="49.79" r="0.63"/><path class="cls-8" d="M134.28,55.42h0Z"/><path class="cls-9" d="M121,75.93c-1.68-4.26-2.31-8.64.19-12.39"/><path class="cls-7" d="M120,42.27c-2.57,5-1.32,10,2.43,11.27"/><path class="cls-6" d="M145,55.11c1.25-3.75,4.38-10.63,10.63-19.38"/><path class="cls-6" d="M154.41,45.73c-3.75,3.75-8.13,8.13-8.13,9.38"/><path class="cls-6" d="M148.16,37c-1.42,3.69-1.86,13.68-3.88,16.72"/><rect class="cls-10" width="155.66" height="108.75"/></g></g></svg>