<svg xmlns="http://www.w3.org/2000/svg" viewBox="0 0 155.66 108.75"><defs><style>.cls-1,.cls-8{fill:#fff;}.cls-1,.cls-3,.cls-4,.cls-5,.cls-6,.cls-7,.cls-9{stroke:#000;}.cls-1,.cls-3,.cls-5,.cls-6,.cls-7,.cls-9{stroke-linecap:round;}.cls-1,.cls-3,.cls-5,.cls-6,.cls-7{stroke-linejoin:round;}.cls-2{fill:#ffcade;}.cls-10,.cls-4,.cls-6,.cls-7,.cls-9{fill:none;}.cls-4,.cls-9{stroke-miterlimit:10;}.cls-4{stroke-width:2px;}.cls-5{fill:#ff7bac;}.cls-6{stroke-width:0.5px;}</style></defs><g id="Layer_2" data-name="Layer 2"><g id="Layer_1-2" data-name="Layer 1"><path class="cls-1" d="M147.12,56.23C145.11,67.3,79.62,95,78.37,60,77,21.18,149.62,42.48,147.12,56.23Z"/><path class="cls-2" d="M129.56,61.25c-7.22-1-13.46,9.84-6.08,16.15s10.44-3.24,6.76-10.54c-1.25,1.25-4.37,3.12-4.37.62S126.49,63.11,129.56,61.25Z"/><path class="cls-3" d="M135.87,66.23c3.75,1.25,7.5-1.25,7.17-4.3C138.37,62.48,137.68,63.59,135.87,66.23Z"/><path class="cls-2" d="M129.62,43.73C132,35.91,128,28,121.85,35.53s1.83,17.08,8.77,14.86C124.62,47.48,122.12,38.73,129.62,43.73Z"/><path class="cls-3" d="M137.12,46.23c3.19-2.64,6.25,0,5.92,3.06C140.87,50,137.12,47.48,137.12,46.23Z"/><path class="cls-4" d="M78.57,60c-17.35.67-26.9-7.1-38.09-18.87C30.28,30.41,12.41,38.83.69,33.08"/><path class="cls-5" d="M149.67,55.56c.31,1.38-3.18,2.55-3.18,0S149.1,53,149.67,55.56Z"/><path class="cls-6" d="M144,58.11c1.25,3.75,4.38,10.62,10.63,19.37"/><path class="cls-6" d="M153.37,67.48c-3.75-3.75-8.13-8.12-8.13-9.37"/><path class="cls-6" d="M147.12,76.23c-1.42-3.69-1.86-13.68-3.88-16.72"/><path class="cls-7" d="M130.87,67.48c3.67,7.3,0,16.23-7.39,9.92s-1.14-17.14,6.08-16.15"/><path class="cls-7" d="M129.62,43.73C132,35.91,128,28,121.85,35.53s1.83,17.08,8.77,14.86"/><circle class="cls-8" cx="139.62" cy="64.98" r="0.63"/><circle class="cls-8" cx="139.62" cy="47.48" r="0.63"/><path class="cls-8" d="M134,53.11h0Z"/><path class="cls-9" d="M120.68,73.62c-1.69-4.26-2.31-8.64.19-12.39"/><path class="cls-7" d="M119.69,40c-2.57,5-1.32,10,2.43,11.27"/><path class="cls-6" d="M144.75,52.8c1.25-3.75,4.38-10.63,10.63-19.38"/><path class="cls-6" d="M154.13,43.42c-3.75,3.75-8.13,8.13-8.13,9.38"/><path class="cls-6" d="M147.88,34.67C146.46,38.36,146,48.35,144,51.39"/><rect class="cls-10" width="155.66" height="108.75"/></g></g></svg>