<svg xmlns="http://www.w3.org/2000/svg" viewBox="0 0 156.32 108.75"><defs><style>.cls-1,.cls-8{fill:#fff;}.cls-1,.cls-3,.cls-4,.cls-5,.cls-6,.cls-7,.cls-9{stroke:#000;}.cls-1,.cls-3,.cls-4,.cls-5,.cls-7,.cls-9{stroke-linecap:round;}.cls-1,.cls-3,.cls-4,.cls-5,.cls-7{stroke-linejoin:round;}.cls-2{fill:#ffcade;}.cls-4{fill:#ff7bac;}.cls-10,.cls-5,.cls-6,.cls-7,.cls-9{fill:none;}.cls-5{stroke-width:0.5px;}.cls-6,.cls-9{stroke-miterlimit:10;}.cls-6{stroke-width:2px;}</style></defs><g id="Layer_2" data-name="Layer 2"><g id="Layer_1-2" data-name="Layer 1"><path class="cls-1" d="M147.82,56.23C145.8,67.3,80.32,95,79.07,60,77.68,21.18,150.32,42.48,147.82,56.23Z"/><path class="cls-2" d="M130.25,61.25c-7.22-1-13.46,9.84-6.07,16.15s10.44-3.24,6.76-10.54c-1.25,1.25-4.37,3.12-4.37.62S127.19,63.11,130.25,61.25Z"/><path class="cls-3" d="M136.57,66.23c3.75,1.25,7.5-1.25,7.17-4.3C139.07,62.48,138.38,63.59,136.57,66.23Z"/><path class="cls-2" d="M130.32,43.73c2.35-7.82-1.59-15.69-7.78-8.2s1.84,17.08,8.78,14.86C125.32,47.48,122.82,38.73,130.32,43.73Z"/><path class="cls-3" d="M137.82,46.23c3.18-2.64,6.25,0,5.92,3.06C141.57,50,137.82,47.48,137.82,46.23Z"/><path class="cls-4" d="M150.37,55.56c.31,1.38-3.18,2.55-3.18,0S149.8,53,150.37,55.56Z"/><path class="cls-5" d="M144.69,58.11c1.25,3.75,4.38,10.62,10.63,19.37"/><path class="cls-5" d="M154.07,67.48c-3.75-3.75-8.13-8.12-8.13-9.37"/><path class="cls-5" d="M147.82,76.23c-1.42-3.69-1.87-13.68-3.88-16.72"/><path class="cls-6" d="M79.27,60c-7.08,6.88-25.08-5.12-38.08,5.88s-4.65,29.78-13,38"/><path class="cls-7" d="M131.57,67.48c3.67,7.3,0,16.23-7.39,9.92S123,60.26,130.25,61.25"/><path class="cls-7" d="M130.32,43.73c2.35-7.82-1.59-15.69-7.78-8.2s1.84,17.08,8.78,14.86"/><circle class="cls-8" cx="140.32" cy="64.98" r="0.63"/><circle class="cls-8" cx="140.32" cy="47.48" r="0.63"/><path class="cls-8" d="M134.69,53.11h0Z"/><path class="cls-9" d="M121.38,73.62c-1.69-4.26-2.31-8.64.19-12.39"/><path class="cls-7" d="M120.39,40c-2.57,5-1.32,10,2.43,11.27"/><path class="cls-5" d="M145.45,52.8c1.25-3.75,4.37-10.63,10.62-19.38"/><path class="cls-5" d="M154.82,43.42c-3.75,3.75-8.12,8.13-8.12,9.38"/><path class="cls-5" d="M148.57,34.67c-1.41,3.69-1.86,13.68-3.87,16.72"/><rect class="cls-10" width="155.66" height="108.75"/></g></g></svg>