<svg xmlns="http://www.w3.org/2000/svg" viewBox="0 0 52.71 143.37"><defs><style>.cls-1{fill:#616161;stroke:#000;stroke-linecap:round;stroke-linejoin:round;}</style></defs><g id="Layer_2" data-name="Layer 2"><g id="Layer_1-2" data-name="Layer 1"><path class="cls-1" d="M42.07,142.87C34.19,122.6-3,109.09.76,84.61c2.31-15.12,6.59-48.76,6.33-57.2C6.9,21.08,2.66,5.48,11.67,5.48,11.8,1.8,18.42-2.4,21,3.36c1.92-4.63,8.68-3.51,10,2.43,5.43.82,5.43,6.45,4.66,10.68,1.9,5.91-2.24,9.79-4.78,15.29-7.13,15.4-3.78,42.36-3.58,49.11s12.75,19.67,24.9,22.59"/><path class="cls-1" d="M11.67,5.48c-1.13,4.51,1.12,7.89,1.12,10.14"/><path class="cls-1" d="M20.68,3.23v7.88"/><path class="cls-1" d="M29.69,14.49a27.34,27.34,0,0,0,1.12-9"/><path class="cls-1" d="M35.32,16.75c-1.13,4.5-3.38,5.63-4.51,10.13"/></g></g></svg>