<svg xmlns="http://www.w3.org/2000/svg" viewBox="0 0 72.85 122.76"><defs><style>.cls-1{fill:#736357;stroke:#000;stroke-linecap:round;stroke-linejoin:round;stroke-width:2px;}</style></defs><g id="Layer_2" data-name="Layer 2"><g id="head"><path class="cls-1" d="M1.46,2C-1.06,25.64,6.18,41,37.91,69.21c29.93,26.64,21.86,38,12.71,45.21-10.25,6.24-3.9,10,5.49,5.07S77.46,96.3,68.92,81.08,42.87,47.93,38,42.12C26.67,28.5,23.93,25.94,30.46,2"/><path d="M3.2,22.77a57.31,57.31,0,0,0,11.28-2.13,59,59,0,0,1-10.24,6Z"/><path d="M5.89,31.32a43,43,0,0,1,6.73-1.83A41.74,41.74,0,0,1,19.46,29a39.78,39.78,0,0,0-6.23,2.4,39.48,39.48,0,0,0-5.54,3.5Z"/><path d="M26.6,23a34.13,34.13,0,0,0-10.37-1.45A36.48,36.48,0,0,1,27,19.05Z"/><path d="M11.91,41.05c1.9-1.27,3.63-3.31,5.61-5.14a16.91,16.91,0,0,1,3.29-2.46,7.55,7.55,0,0,1,3.86-1.05,7.15,7.15,0,0,0-3.28,1.86,15.83,15.83,0,0,0-2.34,2.94c-1.38,2.13-2.49,4.53-4.44,6.8Z"/><path d="M32.67,36.8a16.35,16.35,0,0,0-3.47,1.71,37.25,37.25,0,0,0-3.41,2.38,33.31,33.31,0,0,0-3.16,2.77c-1,1-1.84,2.17-2.86,3.18.75-1.22,1.27-2.54,2-3.81a34.66,34.66,0,0,1,2.55-3.58,43.79,43.79,0,0,1,3-3.3,19.91,19.91,0,0,1,3.66-3Z"/><path d="M21.1,53.85l1-1.32,1-1.12c.66-.75,1.34-1.5,2.06-2.22A15.13,15.13,0,0,1,30,45.72a14.24,14.24,0,0,0-3.27,4.64c-.4.85-.77,1.73-1.13,2.62l-.53,1.35-.39,1.21Z"/><path d="M39.76,45.82c-1,.19-2.31,1.24-3.59,2.17l-3.83,2.83,2.33-4.15c.4-.7.76-1.38,1.21-2.11a8.84,8.84,0,0,1,1.85-2.18Z"/><path d="M28.94,61.05a93.15,93.15,0,0,1,7.93-6.36,91.77,91.77,0,0,0-4.73,8.76Z"/><path d="M48,52.79a23.31,23.31,0,0,1-5.61,4.71,22.11,22.11,0,0,0-2.61,2.06,9.57,9.57,0,0,0-2,2.68A10.39,10.39,0,0,1,38.93,59a23.17,23.17,0,0,1,2-2.9,20.77,20.77,0,0,0,3.55-5.31Z"/><path d="M38.47,70.63A23.29,23.29,0,0,1,48.6,61.35a21.26,21.26,0,0,0-6.45,10.86Z"/><path d="M46.17,77l4.93-4.47c.82-.73,1.64-1.51,2.55-2.22a7.77,7.77,0,0,1,3-1.54A7.21,7.21,0,0,0,54.37,71c-.62.87-1.15,1.83-1.72,2.79l-3.37,5.72Z"/><path d="M65.79,77.49a12.36,12.36,0,0,0-6.21,2.2,16.89,16.89,0,0,0-4.93,5.25,17.89,17.89,0,0,1,3.59-6.73A15.39,15.39,0,0,1,65,73.58Z"/><path d="M55.79,64.49a6.41,6.41,0,0,0-1.67.05c-.61.08-1.24.19-1.88.33A26,26,0,0,0,48.46,66a26.08,26.08,0,0,1,2.86-2.9c.52-.46,1.06-.9,1.64-1.33a10.46,10.46,0,0,1,2-1.19Z"/><path d="M.47,13.27A2.76,2.76,0,0,0,2,13.21,8.78,8.78,0,0,0,4,12.38,45.84,45.84,0,0,0,7.82,9.83C7,11.17,6.28,12.55,5.3,13.88A12.42,12.42,0,0,1,3.55,15.8,6.49,6.49,0,0,1,.84,17.25Z"/><path d="M54.54,88.9a12.23,12.23,0,0,1,5.32-1.68,10.2,10.2,0,0,1,5.07.93A9.1,9.1,0,0,0,57.14,92Z"/><path d="M70.82,93.37a15,15,0,0,0-4.06-.74,34.88,34.88,0,0,0-4.45.05,34.83,34.83,0,0,1,4.11-2,18.33,18.33,0,0,1,4.74-1.27Z"/><polygon points="59.09 98.78 66.16 99.21 59.92 102.69 59.09 98.78"/><path d="M64.06,111.48a7.92,7.92,0,0,0-.39-1.37c-.16-.35-.24-.59-.67-.73a5,5,0,0,0-1.78.05,3.6,3.6,0,0,1-2.06-.2,3.23,3.23,0,0,0,1.71-.74,6.67,6.67,0,0,1,1.91-1.1,3.27,3.27,0,0,1,2.22.13,3.71,3.71,0,0,1,.66.34,9,9,0,0,1,1.92,1.72Z"/><path d="M27.84,13.72a21.59,21.59,0,0,0-5.27-1c-.95-.08-1.93-.17-2.88-.33a21.7,21.7,0,0,1-2.81-.67,24.22,24.22,0,0,0,5.51-1,25.09,25.09,0,0,1,5.94-1Z"/><path d="M14.46,14l-2-5c-.47-1.42-.92-2.89-1.3-4.42S9.46,2,7.46,1l14-1c-1,1-4.86,2.6-5,4s-1,3.07-1,4.55Z"/></g></g></svg>