<svg xmlns="http://www.w3.org/2000/svg" viewBox="0 0 105.75 88.79"><defs><style>.cls-1,.cls-7{fill:#616161;}.cls-1,.cls-10,.cls-11,.cls-12,.cls-3,.cls-4,.cls-5,.cls-9{stroke:#000;}.cls-1,.cls-11,.cls-12,.cls-4,.cls-5,.cls-9{stroke-linecap:round;stroke-linejoin:round;}.cls-2{fill:#ccc;}.cls-12,.cls-3{fill:none;}.cls-10,.cls-3{stroke-miterlimit:10;}.cls-5{fill:#a67c52;}.cls-6{fill:#fff;}.cls-8{fill:#333;}.cls-9{fill:#4d4d4d;}.cls-10{fill:#ffc9dd;}.cls-11{fill:#603813;}</style></defs><g id="Layer_2" data-name="Layer 2"><g id="Layer_1-2" data-name="Layer 1"><path class="cls-1" d="M33.16,70.5c1.74,13,7.5,17.5,17.5,17.75,12.84.32,18.25-.75,22.75-13.5"/><path class="cls-2" d="M73.41,74.75c-4.5,12.75-9.91,13.82-22.75,13.5-10-.25-15.76-4.74-17.5-17.75,3.5,6.25,3,16,17.5,16.25S67.66,85.5,73.41,74.75Z"/><path class="cls-3" d="M73.41,74.75c-4.5,12.75-9.91,13.82-22.75,13.5-10-.25-15.76-4.74-17.5-17.75"/><path class="cls-4" d="M43.66,82.5a26.78,26.78,0,0,0,4.25,1,26.37,26.37,0,0,0,6.71.47c4.53,0,10.7-.44,14.27-3.63a11.44,11.44,0,0,0,2.89-4.72A3.6,3.6,0,0,0,72,73c-.5-1.19-2-1.53-3.28-1.71a37.2,37.2,0,0,0-7.13-.56A36.86,36.86,0,0,0,54.69,72a42.36,42.36,0,0,0-8,2.49c-1.39.65-3.34-1.15-4.81-.72s-2.53,3-3.78,2.12a1.28,1.28,0,0,0-.8-.36,1,1,0,0,0-.53.29c-1,.84-1.82,1.33-.26,2.37S42.46,82,43.66,82.5Z"/><path class="cls-5" d="M90.91,37.75c0,6.91-5,25-12.75,28.75-2.75,9-9.94,18.34-26.5,14.25-8.39-2.08-11.55-6.17-14.5-3-5.07,5.44-7.25-1.25-10-11.5-6-1.5-13.75-20.55-13.75-29.25,0-3.8-.16-6.63,1.38-10,3.81-9.63,6-11.2,16.27-16A48.94,48.94,0,0,1,51.72,6.31a46.62,46.62,0,0,1,20.37,4.55c-.18.14,3.45-.27,4.27-1a25.77,25.77,0,0,1,6.2-4.67c2.35-1.1,5.26-1.36,7.47,0,1.49.93,4.57,1.67,5.63,3.07,3.73,4.91,8.08,9.94,9.25,16,1.5,7.75-2.39,7.23-3.5,5.5C99.33,26.5,99,26.24,96.91,23c-.42,3.64-1.3,3.86-2,7-.18.82-1.94.12-2.5.75C91.34,32,92.91,35.25,90.91,37.75Z"/><path class="cls-6" d="M51.41,80.5C43,78.44,40,74.7,37,77.87c-5.07,5.45-7.25-1.5-10-11.75,1.75-5,4.37,8.88,5.87,4.13.75-2.38-.4-8.32,1.75-11.25s5.09-4.62,9.25-8.5c5.24-4.9,7.84-11.81,8.39-18.85.23-2.92.75-5.72-.36-8.51-1.2-3-3.62-5.83-3.38-9.27l2.95,4.24.22-4,1.61,5.36a48,48,0,0,1,2.39-10c1.17,11.35-2.58,25.35,1.43,36,.7,1.86,3.19,4.25,4.5,5.75,1.12,1.27,5.38,4.25,6.75,5.25C70,57.64,69.86,61.21,70.66,69c.75,7.25,6-5,7-3.75s-3,8.82-3.9,9.92C68,81.9,59.59,82.5,51.41,80.5Z"/><path class="cls-7" d="M48.57,53.46c-.74.11-1.42.12-2.16.29C41.48,54.89,36,63.13,38.16,67.5c.51,1,3,1.26,3.5,2.5,1,2.25-.88,4.2-.5,4.75,1.16,1.67,3.46,2.16,5.25,3a8.18,8.18,0,0,0,3.44.62,1.51,1.51,0,0,0,1.25-.68c.34-.48.41-1.1.71-1.57.13-.2,1.2,2.66,1.29,2.81.54,1,1.87.86,2.94,1.19,1.59.5,2.34.94,4,.75.49-.05,1.65.13,2.06-.15A2.78,2.78,0,0,0,63,79.16c1.33-4.3.79-8.92,1-13.42a5.54,5.54,0,0,1,1-3.47,4.23,4.23,0,0,0,1.41-2.65c.09-1.39-1.4-2.29-2.49-2.95s-2.15-1.84-3.35-2.58c-1.76-1.07-1.35-.67-3.41-.84-1.07-.09-3.95,1.53-5,1.75-.83.16-2.37-1.79-3.2-1.61Z"/><path class="cls-4" d="M47.91,71c1.5,1.5,5.5,1.25,2.25-3.75-2.44-3.76-5.4-1-6.75-.25C44.66,68.75,46.66,68.25,47.91,71Z"/><path class="cls-4" d="M56.4,71.25c-1.5,1.5-5.5,1.25-2.25-3.75,2.44-3.76,5.4-1,6.75-.25C59.65,69,57.65,68.5,56.4,71.25Z"/><path class="cls-8" d="M48,57.37c2-1,5.52-1.95,7.5-.75,5.89,3.58,6.27,4.17,6.25,8,0,.19-.23.47-.31.65-.15.36-.59.48-1,.54a32.93,32.93,0,0,1-6.87.36,3.21,3.21,0,0,0-1.31.09,5,5,0,0,0-1.16.75,5.42,5.42,0,0,1-5.13.36c-1.24-.52-3.79-1.65-3.64-3.06C42.79,60.62,46,58.38,48,57.37Z"/><path class="cls-9" d="M52.16,74.75c.75,0,2-1.25,4.25-3.5.66-.67-4-2-2-4.25s4.75,3,6.44.09a5.34,5.34,0,0,0,1-2.53c0-3.28-4.77-4.06-9.69-4.06s-9.69.78-9.69,4.06a5,5,0,0,0,1,2.53c1.69,2.66,4.66-2.12,6.69.16s-2.91,3.33-2.25,4C50.16,73.5,51.16,74.5,52.16,74.75Z"/><circle class="cls-6" cx="33.47" cy="36.68" r="1.5"/><ellipse class="cls-6" cx="48.87" cy="64" rx="4.08" ry="1.5"/><path class="cls-10" d="M93.66,23c-1.22,1.44-.26,4.34-1,4.6-1.59.53-3.54-1.19-5.53-1.06a6.1,6.1,0,0,1,2.36-3.65A22.15,22.15,0,0,0,92.76,20a4,4,0,0,0,.76-4.14,8.51,8.51,0,0,1-4.85,4.53,7,7,0,0,0-1.6.67,8.91,8.91,0,0,1-1.11.83c-1.31.6-2.67-.81-4.11-1C84.44,19,87.57,20,88.66,17c-1.06.83-4.42.06-5.75.25-2.91.41-3.36.24-5.46-2.43,4-2.82,9.61-6.57,14.24-2.5.46.4,4.29,3.26,4.72,3.68A11.88,11.88,0,0,1,93.66,23Z"/><circle cx="44.22" cy="71.93" r="0.56"/><circle cx="47.47" cy="75.43" r="0.56"/><circle cx="42.47" cy="74.18" r="0.56"/><circle cx="34.72" cy="75.93" r="0.56"/><circle cx="39.47" cy="71.81" r="0.56"/><circle cx="39.97" cy="64.43" r="0.56"/><circle cx="42.47" cy="58.43" r="0.56"/><circle cx="64.97" cy="67.56" r="0.56"/><circle cx="47.97" cy="57.31" r="0.56"/><circle cx="52.72" cy="51.56" r="0.56"/><circle cx="56.97" cy="56.81" r="0.56"/><circle cx="52.97" cy="57.81" r="0.56"/><circle cx="62.47" cy="59.06" r="0.56"/><circle cx="57.85" cy="74.31" r="0.56"/><circle cx="62.72" cy="73.56" r="0.56"/><circle cx="57.85" cy="78.81" r="0.56"/><circle cx="62.85" cy="78.31" r="0.56"/><circle cx="65.47" cy="78.93" r="0.56"/><circle cx="67.97" cy="76.93" r="0.56"/><path class="cls-3" d="M27,66.12C29.79,76.37,32,83.32,37,77.87c3-3.17,6,.57,14.37,2.63,8.18,2,16.8,1.56,22.35-5.33A28,28,0,0,0,78.16,66c1.25-5-.75-9.25,1-14.25"/><path d="M43.41,24.75c-2.21-2.57-1.63,4.57-6.37,5.12-10.75,1.25-10.88,8.13-13.5,8.5.88.81,1.89,5.05,4.5,7.75,3.36,3.5,8.27,3.71,9.5,3.25"/><path d="M37.54,49.37c4-1.5,8.5-6.12,9.62-10.62,1.63-8.88-1.54-11.43-3.75-14"/><path class="cls-11" d="M44.47,40.56C45.66,27.25,29.41,30.25,29.41,38,31.91,52.5,44.41,44,44.47,40.56Z"/><ellipse class="cls-4" cx="37.66" cy="39.25" rx="3.73" ry="4.91"/><circle class="cls-6" cx="34.97" cy="36.43" r="1.5"/><path class="cls-5" d="M26.47,15a55.73,55.73,0,0,1,9.17-6l.07.12c.15.16-3.39-.75-4.1-1.6A25.7,25.7,0,0,0,26.12,2c-2.18-1.42-5-2.08-7.4-1-1.6.72-4.76,1-6,2.26C8.34,7.63,3.34,12,1.35,17.85c-2.56,7.47,1.36,7.49,2.7,5.93,2.51-2.93,2.88-3.13,5.39-6.07-.08,3.67.76,4,1,7.21.06.84,1.9.39,2.37,1.09.89,1.34-1.12,4.39.52,7.14a22,22,0,0,1,7-12.15"/><path d="M63.66,23.75c2.21-2.57,1.63,4.57,6.38,5.12,10.75,1.25,10.87,8.13,13.5,8.5-.89.81-1.9,5.05-4.5,7.75-3.37,3.5-8.28,3.71-9.5,3.25"/><path d="M69.54,48.37c-4-1.5-8.5-6.12-9.63-10.62-1.62-8.88,1.54-11.43,3.75-14"/><path class="cls-11" d="M62.6,39.56C61.41,26.25,77.66,29.25,77.66,37,75.16,51.5,62.66,43,62.6,39.56Z"/><ellipse class="cls-4" cx="69.41" cy="38.25" rx="3.73" ry="4.91"/><ellipse class="cls-6" cx="48.62" cy="63.75" rx="4.08" ry="1.5"/><circle cx="43.97" cy="71.68" r="0.56"/><circle cx="47.22" cy="75.18" r="0.56"/><circle cx="42.22" cy="73.93" r="0.56"/><circle cx="34.47" cy="75.68" r="0.56"/><circle cx="39.22" cy="71.56" r="0.56"/><circle cx="39.72" cy="64.18" r="0.56"/><circle cx="42.22" cy="58.18" r="0.56"/><circle cx="64.72" cy="67.31" r="0.56"/><circle cx="47.72" cy="57.06" r="0.56"/><circle cx="52.47" cy="51.31" r="0.56"/><circle cx="56.72" cy="56.56" r="0.56"/><circle cx="52.72" cy="57.56" r="0.56"/><circle cx="62.22" cy="58.81" r="0.56"/><circle cx="57.6" cy="74.06" r="0.56"/><circle cx="62.47" cy="73.31" r="0.56"/><circle cx="57.6" cy="78.56" r="0.56"/><circle cx="62.6" cy="78.06" r="0.56"/><circle cx="65.22" cy="78.68" r="0.56"/><circle cx="67.72" cy="76.68" r="0.56"/><path class="cls-9" d="M52.16,66.25s-.5,14.75-.5,14.5"/><path class="cls-12" d="M26.16,51.5c2.21,8.07,0,11,1,14.75"/><path class="cls-3" d="M85.66,24.75a21.91,21.91,0,0,1,5.25,13"/><path class="cls-3" d="M96.41,12.25c-2.94-1.37-4.25-1.25-8-2.5s-2.46-.86-6,1.5c-3,2-5,3.5-5,3.5"/><path class="cls-3" d="M72.16,10.75A55.76,55.76,0,0,1,80.41,18"/><path class="cls-3" d="M96.41,16c3,2.25,4.5,3.5,7.75,11.75"/><path class="cls-3" d="M96.91,23c.25-5,1.15-4.32,1.2-5.66"/><path class="cls-10" d="M12.66,18.16c1,1.6-.34,4.34.39,4.7,1.51.75,3.68-.69,5.63-.28a6.09,6.09,0,0,0-1.83-3.94A23.55,23.55,0,0,1,14,15.27a4,4,0,0,1-.18-4.21A8.54,8.54,0,0,0,18,16.22a6.61,6.61,0,0,1,1.49.89,8.24,8.24,0,0,0,1,1c1.21.77,2.76-.43,4.2-.38-2.31-2.18-5.54-1.68-6.21-4.79.93,1,4.37.67,5.66,1,2.83.81,3.29.71,5.74-1.65C26.31,9,21.23,4.47,16.08,7.86c-.5.33-4.69,2.64-5.18,3A11.93,11.93,0,0,0,12.66,18.16Z"/><path class="cls-3" d="M11.42,7.14c3.11-.95,4.38-.65,8.27-1.38s2.55-.51,5.73,2.32c2.7,2.39,4.47,4.15,4.47,4.15"/><path class="cls-3" d="M10.9,10.85C7.62,12.67,6,13.7,1.61,21.42"/><path class="cls-3" d="M9.44,17.71c.44-5-.54-4.43-.41-5.77"/><path class="cls-12" d="M42.58,62.93,48.16,39c0-2.75,1.25-5.5-3.5-12.75"/><path class="cls-12" d="M61.91,64.5l-3.5-22.25c-1.25-9.5,1.75-13.75,4-17.25"/><circle class="cls-6" cx="66.54" cy="35.62" r="1.5"/></g></g></svg>